<svg id="Capa_1" data-name="Capa 1" xmlns="http://www.w3.org/2000/svg" viewBox="0 0 105 114"><defs><style>.cls-1{fill:#41acef;}.cls-2{fill:#4d4d4d;}</style></defs><circle class="cls-1" cx="68.07" cy="68.31" r="2.29"/><path class="cls-1" d="M52.86,51.31a1.8,1.8,0,1,1-1.8-1.8A1.79,1.79,0,0,1,52.86,51.31Z"/><circle class="cls-1" cx="56.79" cy="57.03" r="3.93"/><path class="cls-1" d="M73.38,62.8h-41a19.46,19.46,0,0,0-3,10.37c0,8,5.08,15.33,13,18.92H63.4c7.92-3.59,13-10.94,13-18.92A19.54,19.54,0,0,0,73.38,62.8Zm-10,17.25a4.66,4.66,0,1,1,4.66-4.66A4.66,4.66,0,0,1,63.41,80.05Z"/><path class="cls-2" d="M64.19,97.65H41.53a1.71,1.71,0,0,1-.67-.14c-10.39-4.33-17.1-13.88-17.1-24.34a25.82,25.82,0,0,1,9.91-20.08,1.75,1.75,0,1,1,2.19,2.72,22.37,22.37,0,0,0-8.6,17.36c0,8.94,5.73,17.14,14.63,21h22c8.9-3.84,14.63-12,14.63-21,0-10.12-7.14-19-17.75-22.11a1.75,1.75,0,0,1-1.26-1.68V35.19a1.75,1.75,0,0,1,1.75-1.75h1.66a.91.91,0,1,0,0-1.82h-20a.91.91,0,1,0,0,1.82h1.66a1.74,1.74,0,0,1,1.74,1.75V49.38A1.75,1.75,0,0,1,45,51.06a28.18,28.18,0,0,0-3.33,1.21,1.74,1.74,0,0,1-1.41-3.19c.81-.36,1.65-.69,2.5-1V36.93a4.41,4.41,0,0,1,.09-8.81h20A4.41,4.41,0,0,1,63,36.93V48.1C74.38,52,82,61.89,82,73.17c0,10.46-6.71,20-17.09,24.34A1.8,1.8,0,0,1,64.19,97.65Z"/></svg>