<svg id="Capa_1" data-name="Capa 1" xmlns="http://www.w3.org/2000/svg" viewBox="0 0 105 114"><defs><style>.cls-1{fill:#4d4d4d;}.cls-2{fill:#41acef;}</style></defs><path class="cls-1" d="M52.6,100.61A11.54,11.54,0,0,1,41.07,89.08V52.14a1.57,1.57,0,1,1,3.13,0V89.08a8.4,8.4,0,0,0,16.8,0V41.53H44.2v4.95a1.57,1.57,0,0,1-3.13,0V40a1.56,1.56,0,0,1,1.57-1.56H62.56A1.56,1.56,0,0,1,64.12,40V89.08A11.54,11.54,0,0,1,52.6,100.61Z"/><path class="cls-2" d="M46.05,61.79V89.08a6.55,6.55,0,1,0,13.1,0V61.79Zm4.29,7.71a2.08,2.08,0,1,1,2.08-2.08A2.08,2.08,0,0,1,50.34,69.5Zm3,2a1,1,0,1,1,1-1A1,1,0,0,1,53.38,71.51Z"/><circle class="cls-2" cx="50.9" cy="53.19" r="2.64"/><path class="cls-2" d="M57.16,47.79a1.32,1.32,0,1,1-1.32-1.31A1.32,1.32,0,0,1,57.16,47.79Z"/><path class="cls-1" d="M46.05,32.55a5.87,5.87,0,1,1,5.87-5.87A5.88,5.88,0,0,1,46.05,32.55Zm0-9.7a3.83,3.83,0,1,0,3.83,3.83A3.84,3.84,0,0,0,46.05,22.85Z"/><path class="cls-1" d="M59.15,36.16a3.27,3.27,0,1,1,3.27-3.26A3.27,3.27,0,0,1,59.15,36.16Zm0-4.85a1.59,1.59,0,1,0,1.58,1.59A1.59,1.59,0,0,0,59.15,31.31Z"/><path class="cls-1" d="M55.84,20.71A3.76,3.76,0,1,1,59.6,17,3.77,3.77,0,0,1,55.84,20.71Zm0-5.84A2.08,2.08,0,1,0,57.92,17,2.08,2.08,0,0,0,55.84,14.87Z"/></svg>