<svg id="Capa_1" data-name="Capa 1" xmlns="http://www.w3.org/2000/svg" xmlns:xlink="http://www.w3.org/1999/xlink" viewBox="0 0 230 140"><defs><style>.cls-1{fill:none;}.cls-2{fill:#0094da;}.cls-3{fill:#1d1e1c;}.cls-4{clip-path:url(#clip-path);}</style><clipPath id="clip-path"><path class="cls-1" d="M175.74,61.8a21.41,21.41,0,1,0,21.41-21.41A21.41,21.41,0,0,0,175.74,61.8"/></clipPath></defs><path class="cls-2" d="M92.52,59.33H89.29V57.12h3.23V54.34c0-3.23.66-5.66,5.12-5.66a8.15,8.15,0,0,1,1.68.14V51A6.3,6.3,0,0,0,98,50.89c-2,0-2.88.75-2.88,3.45v2.78h4.16v2.21H95.16V80.57H92.52Z"/><path class="cls-2" d="M103.25,49h2.65v4.5h-2.65Zm0,8.08h2.65V80.57h-2.65Z"/><path class="cls-2" d="M112.08,57.12h2.65V73.64c0,3.79,1.28,5.25,4.06,5.25,3,0,5.13-2.38,5.13-6V57.12h2.65V80.57h-2.39V77.3h-.09a6.57,6.57,0,0,1-6,3.8c-3.58,0-6-1.85-6-6.27Z"/><path class="cls-2" d="M132.3,49H135V60.65H135a5.22,5.22,0,0,1,5.48-4.06c5.17,0,7.51,4.15,7.51,12.23s-2.34,12.28-7.51,12.28a5.77,5.77,0,0,1-5.74-4.42h-.09v3.89H132.3Zm7.78,29.85c2.65,0,5.12-1.37,5.12-10.07s-2.47-10-5.12-10-5.13,1.37-5.13,10S137.38,78.89,140.08,78.89Z"/><path class="cls-2" d="M152.58,64.1c0-4.82,2.29-7.51,7.24-7.51s6.62,2.52,6.62,6.23V76.68c0,1.33.45,1.95,1.37,1.95h.75v1.94a3.57,3.57,0,0,1-1.23.27c-2.08,0-3.4-.49-3.4-2.92v-.79h-.09c-1.06,3.09-3.45,4-6.05,4-4.11,0-6-2.56-6-6.62,0-3.1,1.42-5.57,4.73-6.5l5-1.41c1.86-.53,2.25-1,2.25-3.71,0-3-1.68-4.06-4.06-4.06-3.14,0-4.5,1.9-4.5,5.3Zm11.21,3.22h-.09c-.26.8-1.76,1.28-2.82,1.55l-2.21.57c-2.65.71-4,2.08-4,4.86s1.41,4.59,3.71,4.59c3.22,0,5.43-2.43,5.43-6.62Z"/><path class="cls-3" d="M39.46,71.75c0,6.28-3.71,9.33-9.91,9.33s-9.89-3-9.89-9.33V57.32h5.11V71.75c0,2.54.65,5,4.78,5,3.64,0,4.81-1.59,4.81-5V57.32h5.1Z"/><path class="cls-3" d="M43.85,57.32H54.77c4.42,0,7.41,1.43,7.41,5.75A5.11,5.11,0,0,1,59,67.92a5.66,5.66,0,0,1,4.26,5.88c0,4.71-4,6.73-8.2,6.73H43.85Zm5.1,9.4h5.17c1.79,0,3.12-.82,3.12-2.77,0-2.21-1.69-2.66-3.51-2.66H49Zm0,9.84h5.46c2,0,3.77-.65,3.77-3s-1.49-3.32-3.67-3.32H49Z"/><path class="cls-3" d="M73.07,57.32H78.3L87,80.53h-5.3l-1.75-5.17H71.25l-1.82,5.17H64.26Zm-.49,14.24h6L75.67,63h-.06Z"/><path class="cls-3" d="M16.82,77.72a3.17,3.17,0,1,1-3.17-3.16A3.16,3.16,0,0,1,16.82,77.72Z"/><path d="M91.84,90.12h4.62v.71H92.67v3.4h3.54v.7H92.67v4.52h-.83Z"/><path d="M99.32,90.12h1.05l2.75,9.33h-.88l-.76-2.72H98.21l-.76,2.72h-.88Zm2,5.91-1.43-5.25h0L98.39,96Z"/><path d="M109.9,96.29c-.11,2.13-1.09,3.32-2.77,3.32-1.9,0-3-1.48-3-4.82s1.07-4.82,3-4.82a2.57,2.57,0,0,1,2.68,2.87H109c0-1.27-.64-2.17-1.85-2.17S105,91.77,105,94.79s.81,4.11,2.14,4.11,1.85-1,1.94-2.61Z"/><path d="M111.28,90.12h.83v6.71c0,1.39.6,2.07,1.83,2.07s1.83-.68,1.83-2.07V90.12h.84v6.72c0,2-1,2.77-2.67,2.77s-2.66-.81-2.66-2.77Z"/><path d="M118.33,90.12h.84v8.63H123v.7h-4.7Z"/><path d="M125.07,90.83h-2.4v-.71h5.64v.71h-2.4v8.62h-.84Z"/><path d="M130.81,90.12h1l2.76,9.33h-.89L133,96.73H129.7l-.76,2.72h-.89Zm2,5.91-1.44-5.25h0L129.88,96Z"/><path d="M135.72,90.12H138c2.71,0,3.38,1.62,3.38,4.67s-.67,4.66-3.38,4.66h-2.25Zm.84,8.63h1.35c1.83,0,2.6-.92,2.6-4s-.77-4-2.6-4h-1.35Z"/><path d="M146.65,90.12h2.25c2.72,0,3.39,1.62,3.39,4.67s-.67,4.66-3.39,4.66h-2.25Zm.84,8.63h1.36c1.83,0,2.6-.92,2.6-4s-.77-4-2.6-4h-1.36Z"/><path d="M154.06,90.12h4.63v.71H154.9v3.4h3.54v.7H154.9v3.82h3.9v.7h-4.74Z"/><path d="M163.83,90.12h.84v9.33h-.84Z"/><path d="M166.58,90.12h1.12l3.57,8.13h0V90.12h.84v9.33H171l-3.57-8.12h0v8.12h-.83Z"/><path d="M176.62,95.4v-.7h3v4.75H179V97.91h0a2.2,2.2,0,0,1-2.06,1.7c-1.9,0-3-1.48-3-4.82S175,90,176.88,90s2.58,1.16,2.68,2.77h-.83a1.85,1.85,0,0,0-1.85-2.07c-1.33,0-2.14,1.1-2.14,4.12s.81,4.11,2.14,4.11,2-1.12,2-3.3v-.2Z"/><path d="M181.39,90.12H186v.71h-3.79v3.4h3.54v.7h-3.54v3.82h3.9v.7h-4.74Z"/><path d="M187.58,90.12h1.13l3.56,8.13h0V90.12h.84v9.33H192l-3.56-8.12h0v8.12h-.84Z"/><path d="M195,90.12h.84v9.33H195Z"/><path d="M197.79,90.12h4.62v.71h-3.79v3.4h3.54v.7h-3.54v3.82h3.91v.7h-4.74Z"/><path d="M204,90.12h2.78a2.17,2.17,0,0,1,2.42,2.34,2.14,2.14,0,0,1-1.69,2.37v0c1.17.11,1.56.77,1.6,2.21l0,1a2.11,2.11,0,0,0,.39,1.37h-1a2.74,2.74,0,0,1-.25-1.31l0-.78c-.05-1.64-.35-2.17-1.85-2.17h-1.58v4.26H204Zm.84,4.37h1.43c1.32,0,2.09-.6,2.09-1.83s-.48-1.83-2-1.83h-1.52Z"/><path d="M212.72,87.84l-1.28,1.84h-.63l1-1.84ZM211,90.12h.83v9.33H211Z"/><path d="M215.71,90.12h1l2.75,9.33h-.89l-.75-2.72H214.6l-.76,2.72H213Zm2,5.91-1.43-5.25h0L214.78,96Z"/><g class="cls-4"><path class="cls-2" d="M208.43,48.58c.13-1.33-1.39-1.2-1.39-1.2s-.75,0-1.18,1.28a2.11,2.11,0,0,0,.78,2.19C206.6,49,208.32,50,208.43,48.58Z"/><path class="cls-2" d="M220.84,59.3h0c0-.15,0-.3-.05-.46-1.22-8.87-7.17-15.66-12.21-18A23.53,23.53,0,0,0,196.88,38a24.44,24.44,0,0,0-12.68,3.87V44l1-.64,2.37-1.79,6-1.65,3-.49,7.44,1.14s5.74,2.64,2.47,1.5c-4-1.36-5.1,1.39-5.1,1.39a3.87,3.87,0,0,0-3.7-.47c-2.1.94-2.32,3-1.46,4.88-2.69-.86-6.42,2.25-9.46,3-.71.17-1.32.28-1.83.35l.41.35c.91.79,6.57-1.72,6.57-1.72a10.44,10.44,0,0,1,3.46-1c2.66-.21,1.4,3,1.4,3-.75-2.2-3.62-1-3.62-1l-7.37,2.6s7.75,5.11,8.34,5.55a2.65,2.65,0,0,1,1.25,1.83,1.36,1.36,0,0,0,.9,1.35c.45,0,.45.38.45.38s-1.57,6,3.71,9.22c3.9,2.34,6.21-2.49,6.26-2.91a6.11,6.11,0,0,1,1.82,7.82v0a2.83,2.83,0,0,1-2.93,1.88c-2.2-.21,1.38-.88-.22-3.34,0,0-.58-1.21-1.23,0a5.13,5.13,0,0,1-3.17,2.64,4.47,4.47,0,0,1-3.89-1.51,7.83,7.83,0,0,1-2-8.36.74.74,0,0,0-.82.06c-.36.32-2.48,1.06-3.08-1.89,0,0,.39-.16.51,0a2,2,0,0,0,2.86-1.07,2.3,2.3,0,0,0-1-3.07,2.56,2.56,0,0,1-1.49-2.33c0-.88-3.66-1.08-3.74-1s.91.51.84.71-.86-.1-.95.17-.68.73-.89.59-.19-1.61-.73-1.81-.56-.35-1.12-.15a52.13,52.13,0,0,1-1.14,5.17c-.4,1-.35,1.57,1.18,1.35a.56.56,0,0,1,.49.33c.14.27-.14,1,.41,1.14s.58,2.17.58,2.25A2,2,0,0,0,189,69.92c1.39,0,2.72-.42,2.92-.3s-.31,4.89-2.4,6.89A8.25,8.25,0,0,1,184.2,79v2.76A25.3,25.3,0,0,0,197,85.58a22.19,22.19,0,0,0,11.58-2.94h0C222.91,74.55,220.84,59.3,220.84,59.3ZM192.1,52.39c4-.88,2.83,2.76,2.83,2.76C191.33,55.63,192.1,52.39,192.1,52.39Zm1.82,4.46c.44-1,2-.63,2-.63-.14-1.66.89-1.88.89-1.88,1.11-.47,2.52,2.53.73,3.66S193.45,57.87,193.92,56.85Zm2.58,2.78c.53-1,2-.52,2-.52,0-1.66,1-1.83,1-1.83,1.13-.38,2.35,2.69.51,3.72S196,60.62,196.5,59.63Zm2,2.86c.73-.85,2.06,0,2.06,0,.34-1.64,1.4-1.56,1.4-1.56,1.17-.13,1.67,3.14-.36,3.72S197.73,63.34,198.46,62.49Zm9.1.76c-.49.37-1.08.81-1.62,1.27-1.13,1-1,1.36-1.09,1.79s.11,1.61-1.87,1.94-2.66-2-2.44-2.43,2.22.06,2.22.06v-.54a.54.54,0,0,0,.27-.76c4.73-2.21,5.82-6.3,5.17-9.38a7.37,7.37,0,0,0-1.94-3.78,11.83,11.83,0,0,0-2.11-1.56c-1.58-1-5-.59-5-.59A5.41,5.41,0,0,1,197,46.69a2.13,2.13,0,0,1,1-2.44,2.22,2.22,0,0,1,2.19,0A3.16,3.16,0,0,1,201.35,46a1.79,1.79,0,0,1,2.21-1.6,2.37,2.37,0,0,1,2.15,2.69,2.21,2.21,0,0,1,2.23-.8h0a1.46,1.46,0,0,1,.64.31,2.52,2.52,0,0,1,.47,3.4c-1,1.57-1.6.88-.61,2.58A9.37,9.37,0,0,1,207.56,63.25Z"/><path class="cls-2" d="M200,45.33a1.2,1.2,0,0,0-1.85,0s-.56.48,0,1.73a2.09,2.09,0,0,0,2,1.12C198.9,46.89,200.9,46.38,200,45.33Z"/><path class="cls-2" d="M190.12,58.12s-4.6-4.11-4.47-2.32v1S189.72,58.4,190.12,58.12Z"/><path class="cls-2" d="M202.88,45.42s-.71.23-.67,1.61a2.09,2.09,0,0,0,1.47,1.79c-.67-1.68,1.43-1.44.92-2.73A1.23,1.23,0,0,0,202.88,45.42Z"/></g><path class="cls-2" d="M197.15,41.67A20.13,20.13,0,1,1,177,61.8a20.15,20.15,0,0,1,20.13-20.13m0-1.28A21.41,21.41,0,1,0,218.56,61.8a21.42,21.42,0,0,0-21.41-21.41"/></svg>