<svg id="Capa_1" data-name="Capa 1" xmlns="http://www.w3.org/2000/svg" viewBox="0 0 105 114"><defs><style>.cls-1{fill:#41acef;}.cls-2{fill:#4d4d4d;}</style></defs><path class="cls-1" d="M70.54,35a16.25,16.25,0,1,0,2.25,22.86A16.26,16.26,0,0,0,70.54,35ZM58.11,43.72A1.15,1.15,0,1,1,58,42.1,1.15,1.15,0,0,1,58.11,43.72ZM58.72,40a2.75,2.75,0,1,1-.38-3.87A2.76,2.76,0,0,1,58.72,40Z"/><path class="cls-2" d="M46.11,64.76A22.27,22.27,0,1,1,80,37.17a1.77,1.77,0,1,1-3.14,1.65,18.51,18.51,0,0,0-4.7-5.76,18.74,18.74,0,1,0,6.83,13.68,1.78,1.78,0,0,1,3.55-.15A22.28,22.28,0,0,1,46.11,64.76Z"/><path class="cls-2" d="M24.07,91.62a6.39,6.39,0,0,1-.89-9L42.63,58.92a1.78,1.78,0,0,1,2.78,0,18.28,18.28,0,0,0,6.52,5.35,1.78,1.78,0,0,1,1,1.22A1.75,1.75,0,0,1,52.51,67L33.06,90.74A6.39,6.39,0,0,1,24.07,91.62ZM44,62.81,25.92,84.88a2.85,2.85,0,0,0,4.4,3.61L48.43,66.41A20.87,20.87,0,0,1,44,62.81Z"/></svg>