<svg id="Capa_1" data-name="Capa 1" xmlns="http://www.w3.org/2000/svg" viewBox="0 0 230 140"><defs><style>.cls-1{fill:none;}.cls-2{fill:#008ac9;}.cls-3{fill:#5d5d5d;}</style></defs><polygon class="cls-1" points="26.88 74.47 26.88 74.47 26.88 74.47 26.88 74.47"/><path class="cls-1" d="M26.6,71.34l-6.74-.43a1.09,1.09,0,0,0-1.15,1v.2a1.09,1.09,0,0,0,.24.75l0,0a1,1,0,0,0,.74.33l6.67.44A9.45,9.45,0,0,1,26.6,71.34Z"/><path class="cls-1" d="M41.85,68.2l2.67-2.66a1.1,1.1,0,0,0,0-1.55l-.14-.14a1.16,1.16,0,0,0-.72-.32H43.6a1.07,1.07,0,0,0-.77.32l-2.69,2.68A9.09,9.09,0,0,1,41.85,68.2Z"/><path class="cls-1" d="M36.89,80.52a2.74,2.74,0,0,1,.57-3.76l.22-.17a2.73,2.73,0,0,1,3.82.52l0,0a7.5,7.5,0,0,0,.06-7.41c-.09-.16-.19-.31-.29-.46A7,7,0,0,0,40,67.71a7.91,7.91,0,0,0-.66-.52c-.22-.15-.44-.29-.67-.42a7.55,7.55,0,0,0-11.22,6.61,7.2,7.2,0,0,0,.08,1.14,7.55,7.55,0,0,0,7.1,6.42A7.7,7.7,0,0,0,37,80.66Z"/><path class="cls-1" d="M43,81.06l-2.43-3.2a1.49,1.49,0,0,0-2.11-.29l-.22.16a1.52,1.52,0,0,0-.57.93s0,0,0,.07a1.46,1.46,0,0,0,.31,1.08l4,5.4h0l.26.34a8.77,8.77,0,0,1,2.62-2Z"/><path class="cls-2" d="M53.06,57.71A6.85,6.85,0,0,1,46.8,68,6.74,6.74,0,0,1,44,67.29l1.12-1.12a2,2,0,0,0,0-2.8L45,63.22a2,2,0,0,0-1.41-.58,2,2,0,0,0-1.4.58l-1.14,1.13a6.86,6.86,0,0,1,7.72-9.83c-4-2.91-8.81-6.36-14.5-10.16A290.24,290.24,0,0,0,7.45,63.89c.3,1.1.6,2.15.89,3.19a6.84,6.84,0,0,1,12,3l-.4,0a2,2,0,0,0-2.08,1.85v.2a2,2,0,0,0,1.79,2.07l.29,0a6.84,6.84,0,0,1-6.63,4.15A7,7,0,0,1,11.6,78a164.89,164.89,0,0,0,6.12,17.14,264.52,264.52,0,0,0,27.33.27,6,6,0,0,1-3.43-5.73,6,6,0,0,1,1.22-3.33,5.22,5.22,0,0,1,.82-.88,5.87,5.87,0,0,1,1.83-1.11h0a6,6,0,0,1,7.89,3.91,208.35,208.35,0,0,0,7.51-24.4S58.16,61.58,53.06,57.71ZM42.83,63.85a1.07,1.07,0,0,1,.77-.32h.06a1.16,1.16,0,0,1,.72.32l.14.14a1.1,1.1,0,0,1,0,1.55L41.85,68.2a9.09,9.09,0,0,0-1.71-1.67ZM26.88,74.47ZM19,72.92l0,0a1.09,1.09,0,0,1-.24-.75v-.2a1.09,1.09,0,0,1,1.15-1l6.74.43a9.45,9.45,0,0,0-.22,2.35l-6.67-.44A1,1,0,0,1,19,72.92Zm8.52,1.6a7.2,7.2,0,0,1-.08-1.14,7.55,7.55,0,0,1,11.22-6.61c.23.13.45.27.67.42a7.91,7.91,0,0,1,.66.52,7,7,0,0,1,1.33,1.56c.1.15.2.3.29.46a7.5,7.5,0,0,1-.06,7.41l0,0a2.73,2.73,0,0,0-3.82-.52l-.22.17a2.74,2.74,0,0,0-.57,3.76l.11.14a7.7,7.7,0,0,1-2.41.28A7.55,7.55,0,0,1,27.49,74.52Zm14.75,11L42,85.21h0l-4-5.4a1.46,1.46,0,0,1-.31-1.08s0,0,0-.07a1.52,1.52,0,0,1,.57-.93l.22-.16a1.49,1.49,0,0,1,2.11.29L43,81.06l1.9,2.52A8.77,8.77,0,0,0,42.24,85.55Z"/><path class="cls-2" d="M68.86,46.6H71.4V58.11H68.86Z"/><path class="cls-2" d="M73.38,49.76h2.18v1.16a3.08,3.08,0,0,1,1.15-1,3.13,3.13,0,0,1,1.45-.34,2.84,2.84,0,0,1,2.39.87A4.18,4.18,0,0,1,81.21,53v5.14H78.92V53.39c0-1.36-.49-2-1.47-2a1.57,1.57,0,0,0-1.36.56,3.08,3.08,0,0,0-.42,1.83v4.38H73.38Z"/><path class="cls-2" d="M84.73,55.39a1.2,1.2,0,0,0,.5,1.06,2.16,2.16,0,0,0,1.26.35,2.2,2.2,0,0,0,1.05-.25.87.87,0,0,0,.45-.82q0-.72-1.92-1.14a8.42,8.42,0,0,1-2.62-.89,1.66,1.66,0,0,1-.71-1.49,2.21,2.21,0,0,1,1-2.06,5.05,5.05,0,0,1,2.6-.61,4.82,4.82,0,0,1,2.55.61,2.52,2.52,0,0,1,1.13,2.05H87.88a.93.93,0,0,0-.44-.87,2.13,2.13,0,0,0-1.13-.26,2.21,2.21,0,0,0-.89.16.6.6,0,0,0-.38.61.66.66,0,0,0,.46.7c.32.11,1,.27,1.93.5a6.18,6.18,0,0,1,2.16.83,1.79,1.79,0,0,1,.69,1.56,2.42,2.42,0,0,1-1.09,2.22,5.06,5.06,0,0,1-2.72.68,5.16,5.16,0,0,1-2.79-.7,2.44,2.44,0,0,1-1.13-2.24Z"/><path class="cls-2" d="M94.53,49.76h1.68v1.53H94.53v4.14a1.12,1.12,0,0,0,.19.77,1.13,1.13,0,0,0,.78.19,2.71,2.71,0,0,0,.71-.08v1.8a6.2,6.2,0,0,1-.78.07l-.56,0a3.76,3.76,0,0,1-1.94-.41,1.68,1.68,0,0,1-.7-1.57V51.29H90.85V49.76h1.38V47.24h2.3Z"/><path class="cls-2" d="M99.66,48.49H97.37V46.6h2.29Zm-2.29,1.27h2.29v8.35H97.37Z"/><path class="cls-2" d="M104.37,49.76h1.68v1.53h-1.68v4.14a.78.78,0,0,0,1,1,2.62,2.62,0,0,0,.71-.08v1.8a5.83,5.83,0,0,1-.77.07l-.57,0a3.78,3.78,0,0,1-1.94-.41,1.67,1.67,0,0,1-.69-1.57V51.29h-1.39V49.76h1.39V47.24h2.29Z"/><path class="cls-2" d="M115,58.11H112.8V56.94a3.08,3.08,0,0,1-2.6,1.39,2.84,2.84,0,0,1-2.39-.87,4.22,4.22,0,0,1-.66-2.57V49.76h2.29v4.71c0,1.37.49,2.05,1.47,2.05a1.58,1.58,0,0,0,1.36-.55,3.11,3.11,0,0,0,.41-1.84V49.76H115Z"/><path class="cls-2" d="M119.63,49.76h1.67v1.53h-1.67v4.14a.77.77,0,0,0,1,1,2.62,2.62,0,0,0,.71-.08v1.8a5.83,5.83,0,0,1-.77.07l-.57,0a3.74,3.74,0,0,1-1.93-.41,1.66,1.66,0,0,1-.7-1.57V51.29H116V49.76h1.38V47.24h2.3Z"/><path class="cls-2" d="M126.45,49.54a4.21,4.21,0,0,1,3.16,1.2,4.92,4.92,0,0,1,0,6.39,4.71,4.71,0,0,1-6.28,0,4.95,4.95,0,0,1,0-6.39A4.19,4.19,0,0,1,126.45,49.54Zm0,7.06a1.71,1.71,0,0,0,1.56-.75,3.51,3.51,0,0,0,.48-1.91A3.64,3.64,0,0,0,128,52a1.71,1.71,0,0,0-1.57-.76,1.67,1.67,0,0,0-1.54.78,3.53,3.53,0,0,0-.48,1.9,3.6,3.6,0,0,0,.47,1.91A1.69,1.69,0,0,0,126.45,56.6Z"/><path class="cls-2" d="M142.71,57a2.49,2.49,0,0,1-1.08,1,3.43,3.43,0,0,1-1.49.31A3.25,3.25,0,0,1,137.38,57a5.07,5.07,0,0,1-1-3.16,4.94,4.94,0,0,1,1-3.07,3.25,3.25,0,0,1,2.73-1.25,3.32,3.32,0,0,1,1.43.31,2.46,2.46,0,0,1,1.06.93h0V46.6h2.3V58.11h-2.18Zm-2-5.78a1.71,1.71,0,0,0-1.54.76,3.43,3.43,0,0,0-.49,1.91,3.37,3.37,0,0,0,.51,1.88,1.69,1.69,0,0,0,1.52.79,1.64,1.64,0,0,0,1.52-.75,3.69,3.69,0,0,0,.47-1.94,3.48,3.48,0,0,0-.48-1.9A1.64,1.64,0,0,0,140.72,51.26Z"/><path class="cls-2" d="M148.5,54.47a2.21,2.21,0,0,0,.53,1.61,2.08,2.08,0,0,0,1.52.52,2.16,2.16,0,0,0,1.18-.33,1.43,1.43,0,0,0,.63-.76h2a4,4,0,0,1-1.46,2.14,4.21,4.21,0,0,1-2.45.68,4.06,4.06,0,0,1-3.11-1.22,4.87,4.87,0,0,1,0-6.32,4,4,0,0,1,3.08-1.25,3.48,3.48,0,0,1,3,1.43,5.8,5.8,0,0,1,1,3.5ZM152.23,53a2.46,2.46,0,0,0-.58-1.33,1.66,1.66,0,0,0-1.24-.43,1.75,1.75,0,0,0-1.44.57A1.87,1.87,0,0,0,148.5,53Z"/><path class="cls-2" d="M170.19,59.18l-1.63-1.48a5.59,5.59,0,0,1-2.79.66,5.26,5.26,0,0,1-4.13-1.7,6.16,6.16,0,0,1-1.53-4.27A6.27,6.27,0,0,1,161.63,48a5.82,5.82,0,0,1,8.27,0,6.27,6.27,0,0,1,1.54,4.35,7,7,0,0,1-.38,2.32,6,6,0,0,1-1.12,1.92l1.43,1.3Zm-3.31-5.34,1.31,1.2a3.57,3.57,0,0,0,.53-1.11,5.74,5.74,0,0,0,.18-1.53,4.91,4.91,0,0,0-.76-2.81,3,3,0,0,0-4.73,0,4.89,4.89,0,0,0-.77,2.81,4.74,4.74,0,0,0,.77,2.73,2.67,2.67,0,0,0,2.36,1.11,6,6,0,0,0,.66,0,.64.64,0,0,0,.36-.12l-1.08-1Z"/><path class="cls-2" d="M180.75,58.11h-2.18V56.94a2.93,2.93,0,0,1-1.15,1,3,3,0,0,1-1.45.35,2.84,2.84,0,0,1-2.39-.87,4.22,4.22,0,0,1-.66-2.57V49.76h2.29v4.71c0,1.37.49,2.05,1.47,2.05a1.6,1.6,0,0,0,1.37-.55,3.18,3.18,0,0,0,.41-1.84V49.76h2.29Z"/><path class="cls-2" d="M184.09,48.73h-1.6L184,46.44h2.54Zm-1.53,1h2.29v8.35h-2.29Z"/><path class="cls-2" d="M186.72,49.76h2.16v1.13a3.47,3.47,0,0,1,1.13-1,3,3,0,0,1,1.46-.34,3.14,3.14,0,0,1,1.48.33,2.08,2.08,0,0,1,1,1.05,3.32,3.32,0,0,1,1-1,2.78,2.78,0,0,1,1.47-.39,3.27,3.27,0,0,1,2.24.71,2.89,2.89,0,0,1,.81,2.27v5.59h-2.29V53.38a3.4,3.4,0,0,0-.26-1.53q-.25-.51-1.14-.51a1.28,1.28,0,0,0-1.21.59,3.1,3.1,0,0,0-.33,1.53v4.65H192V53.43a4.41,4.41,0,0,0-.21-1.57c-.14-.34-.53-.52-1.18-.52a1.65,1.65,0,0,0-1,.43,1.86,1.86,0,0,0-.51,1.49v4.85h-2.29Z"/><path class="cls-2" d="M203.64,48.49h-2.29V46.6h2.29Zm-2.29,1.27h2.29v8.35h-2.29Z"/><path class="cls-2" d="M211.13,52.7a1.74,1.74,0,0,0-.54-1.07,1.7,1.7,0,0,0-1.16-.37,1.58,1.58,0,0,0-1.47.83,4,4,0,0,0,0,3.73,1.55,1.55,0,0,0,1.45.78,1.74,1.74,0,0,0,1.25-.45,2.09,2.09,0,0,0,.58-1.24h2.21a3.8,3.8,0,0,1-1.28,2.53,4.18,4.18,0,0,1-2.74.89,4.07,4.07,0,0,1-3.05-1.19,4.23,4.23,0,0,1-1.16-3.09,4.69,4.69,0,0,1,1.14-3.25,4,4,0,0,1,3.12-1.26,4.65,4.65,0,0,1,2.77.82,2.7,2.7,0,0,1,1.15,2.34Z"/><path class="cls-2" d="M214.61,52.33a2.28,2.28,0,0,1,1.15-2.13,5.47,5.47,0,0,1,2.78-.66,5.94,5.94,0,0,1,2.6.5,1.88,1.88,0,0,1,1.06,1.87v4.34a7.5,7.5,0,0,0,.07,1.11,2.1,2.1,0,0,0,.22.75h-2.32c-.06-.19-.1-.33-.13-.44a2,2,0,0,1,0-.37,3.11,3.11,0,0,1-1.25.77,4.55,4.55,0,0,1-1.55.26,3.19,3.19,0,0,1-2.06-.63,2.26,2.26,0,0,1-.79-1.87,2.08,2.08,0,0,1,.77-1.82,4.18,4.18,0,0,1,1.89-.69l2.07-.3c.55-.14.83-.41.83-.82a1,1,0,0,0-.38-.91,2.2,2.2,0,0,0-1.11-.22,1.69,1.69,0,0,0-1.06.3,1.33,1.33,0,0,0-.45,1Zm5.3,1.69a2,2,0,0,1-1,.34l-1.16.19a2.1,2.1,0,0,0-.75.34,1,1,0,0,0-.34.84.87.87,0,0,0,.38.83,1.88,1.88,0,0,0,1,.24,1.6,1.6,0,0,0,1.5-.61,2.56,2.56,0,0,0,.36-1.31Z"/><path class="cls-2" d="M71.44,64h2.25l3.74,10H75.15l-.76-2.22H70.66l-.78,2.22H67.65Zm-.21,6.11h2.59l-1.26-3.65Z"/><path class="cls-2" d="M78.09,66.7H80v.92a2.34,2.34,0,0,1,.93-.84,2.83,2.83,0,0,1,1.25-.28,2.89,2.89,0,0,1,2.45,1.12,4.49,4.49,0,0,1,.84,2.77A4.21,4.21,0,0,1,84.61,73a3,3,0,0,1-3.58.81,2.34,2.34,0,0,1-.93-.8l0,3.44h-2Zm5.37,3.64A3.08,3.08,0,0,0,83,68.68,1.47,1.47,0,0,0,81.71,68a1.44,1.44,0,0,0-1.32.67A3.09,3.09,0,0,0,80,70.34,3,3,0,0,0,80.4,72a1.46,1.46,0,0,0,1.32.65A1.45,1.45,0,0,0,83.05,72,3,3,0,0,0,83.46,70.34Z"/><path class="cls-2" d="M86.69,64h2v10h-2Z"/><path class="cls-2" d="M92.29,65.59h-2V64h2Zm-2,1.11h2v7.23h-2Z"/><path class="cls-2" d="M98.78,69.24a1.53,1.53,0,0,0-.47-.93,1.5,1.5,0,0,0-1-.31,1.38,1.38,0,0,0-1.28.71A3.41,3.41,0,0,0,96,72a1.35,1.35,0,0,0,1.26.68,1.48,1.48,0,0,0,1.07-.39,1.83,1.83,0,0,0,.51-1.08h1.91a3.27,3.27,0,0,1-1.11,2.19,3.56,3.56,0,0,1-2.37.78,3.52,3.52,0,0,1-2.64-1,3.64,3.64,0,0,1-1-2.67,4.08,4.08,0,0,1,1-2.82,3.47,3.47,0,0,1,2.71-1.1,4,4,0,0,1,2.4.72,2.32,2.32,0,0,1,1,2Z"/><path class="cls-2" d="M101.8,68.92a2,2,0,0,1,1-1.84,4.65,4.65,0,0,1,2.41-.58,5.26,5.26,0,0,1,2.26.44,1.64,1.64,0,0,1,.91,1.62v3.76a5.74,5.74,0,0,0,.07,1,1.84,1.84,0,0,0,.18.64h-2c0-.16-.08-.28-.11-.38a1.51,1.51,0,0,1,0-.32,2.71,2.71,0,0,1-1.08.67,4.16,4.16,0,0,1-1.35.23,2.79,2.79,0,0,1-1.79-.55,2,2,0,0,1-.68-1.62,1.82,1.82,0,0,1,.67-1.58,3.69,3.69,0,0,1,1.64-.6c.64-.09,1.24-.17,1.79-.26s.72-.35.72-.71a.83.83,0,0,0-.33-.78,1.91,1.91,0,0,0-1-.2,1.42,1.42,0,0,0-.92.27,1.12,1.12,0,0,0-.4.82Zm4.59,1.47a1.87,1.87,0,0,1-.88.3l-1,.16a1.67,1.67,0,0,0-.65.3.84.84,0,0,0-.3.72.77.77,0,0,0,.33.72,1.63,1.63,0,0,0,.89.21,1.4,1.4,0,0,0,1.3-.53,2.32,2.32,0,0,0,.31-1.14Z"/><path class="cls-2" d="M115.07,73a2.1,2.1,0,0,1-.93.84,2.87,2.87,0,0,1-1.29.28A2.81,2.81,0,0,1,110.46,73a4.41,4.41,0,0,1-.86-2.74,4.25,4.25,0,0,1,.84-2.66,2.84,2.84,0,0,1,2.37-1.09,2.74,2.74,0,0,1,1.23.28,2.11,2.11,0,0,1,.92.8h0V64h2v10h-1.89Zm-1.72-5a1.47,1.47,0,0,0-1.34.66,3,3,0,0,0-.42,1.65,3,3,0,0,0,.44,1.63,1.48,1.48,0,0,0,1.32.69,1.43,1.43,0,0,0,1.32-.66,3.17,3.17,0,0,0,.4-1.68,3,3,0,0,0-.41-1.64A1.44,1.44,0,0,0,113.35,68Z"/><path class="cls-2" d="M118.37,68.92a2,2,0,0,1,1-1.84,4.64,4.64,0,0,1,2.4-.58,5.23,5.23,0,0,1,2.26.44,1.65,1.65,0,0,1,.92,1.62v3.76a7.1,7.1,0,0,0,.06,1,1.81,1.81,0,0,0,.19.64h-2c0-.16-.09-.28-.11-.38a1.51,1.51,0,0,1,0-.32,2.68,2.68,0,0,1-1.09.67,4.07,4.07,0,0,1-1.35.23,2.78,2.78,0,0,1-1.78-.55,2,2,0,0,1-.68-1.62,1.81,1.81,0,0,1,.66-1.58,3.74,3.74,0,0,1,1.64-.6c.65-.09,1.25-.17,1.8-.26s.71-.35.71-.71a.83.83,0,0,0-.33-.78,1.87,1.87,0,0,0-.95-.2,1.45,1.45,0,0,0-.93.27,1.15,1.15,0,0,0-.39.82ZM123,70.39a1.86,1.86,0,0,1-.87.3c-.44.06-.77.12-1,.16a1.61,1.61,0,0,0-.65.3.84.84,0,0,0-.3.72.77.77,0,0,0,.33.72,1.59,1.59,0,0,0,.88.21c.67,0,1.1-.18,1.3-.53a2.22,2.22,0,0,0,.31-1.14Z"/><path class="cls-2" d="M130.29,68.92a2,2,0,0,1,1-1.84,4.64,4.64,0,0,1,2.4-.58,5.23,5.23,0,0,1,2.26.44,1.65,1.65,0,0,1,.92,1.62v3.76a7.1,7.1,0,0,0,.06,1,1.81,1.81,0,0,0,.19.64h-2c0-.16-.08-.28-.1-.38a1.51,1.51,0,0,1,0-.32,2.75,2.75,0,0,1-1.09.67,4.07,4.07,0,0,1-1.35.23,2.76,2.76,0,0,1-1.78-.55,1.92,1.92,0,0,1-.68-1.62,1.81,1.81,0,0,1,.66-1.58,3.74,3.74,0,0,1,1.64-.6c.65-.09,1.25-.17,1.8-.26s.71-.35.71-.71a.83.83,0,0,0-.33-.78,1.91,1.91,0,0,0-1-.2,1.42,1.42,0,0,0-.92.27,1.15,1.15,0,0,0-.39.82Zm4.59,1.47a1.86,1.86,0,0,1-.87.3c-.44.06-.77.12-1,.16a1.61,1.61,0,0,0-.65.3.82.82,0,0,0-.31.72.77.77,0,0,0,.33.72,1.65,1.65,0,0,0,.89.21,1.39,1.39,0,0,0,1.3-.53,2.22,2.22,0,0,0,.31-1.14Z"/><path class="cls-2" d="M142.35,64h2v10h-2Z"/><path class="cls-2" d="M145.82,68.92a2,2,0,0,1,1-1.84,4.7,4.7,0,0,1,2.41-.58,5.26,5.26,0,0,1,2.26.44,1.64,1.64,0,0,1,.91,1.62v3.76a7,7,0,0,0,.07,1,1.62,1.62,0,0,0,.19.64h-2c0-.16-.08-.28-.1-.38a1,1,0,0,1,0-.32,2.71,2.71,0,0,1-1.08.67,4.16,4.16,0,0,1-1.35.23,2.81,2.81,0,0,1-1.79-.55A2,2,0,0,1,145.6,72a1.81,1.81,0,0,1,.66-1.58,3.69,3.69,0,0,1,1.64-.6c.65-.09,1.24-.17,1.79-.26s.72-.35.72-.71a.83.83,0,0,0-.33-.78,1.91,1.91,0,0,0-1-.2,1.42,1.42,0,0,0-.92.27,1.08,1.08,0,0,0-.39.82Zm4.59,1.47a1.87,1.87,0,0,1-.88.3l-1,.16a1.67,1.67,0,0,0-.65.3.84.84,0,0,0-.3.72.77.77,0,0,0,.33.72,1.65,1.65,0,0,0,.89.21,1.39,1.39,0,0,0,1.3-.53,2.22,2.22,0,0,0,.31-1.14Z"/><path class="cls-2" d="M158,64h2.2v10H158Z"/><path class="cls-2" d="M162,66.7h1.89v1a2.65,2.65,0,0,1,1-.9,2.72,2.72,0,0,1,1.26-.3,2.43,2.43,0,0,1,2.07.76,3.63,3.63,0,0,1,.57,2.22v4.45h-2V69.85c0-1.19-.43-1.78-1.28-1.78a1.38,1.38,0,0,0-1.18.48,2.71,2.71,0,0,0-.35,1.59v3.79h-2Z"/><path class="cls-2" d="M177.2,73.47a3.52,3.52,0,0,1-.77,2.24,3.7,3.7,0,0,1-3,1,4.14,4.14,0,0,1-2.22-.59,1.89,1.89,0,0,1-1-1.73h2a1.19,1.19,0,0,0,.53.76,1.88,1.88,0,0,0,.95.23,1.43,1.43,0,0,0,1.18-.49,2,2,0,0,0,.41-1.3v-1a2.14,2.14,0,0,1-.93.83,2.85,2.85,0,0,1-1.27.29,2.71,2.71,0,0,1-2.31-1,4.19,4.19,0,0,1-.78-2.62,4,4,0,0,1,.83-2.54,2.76,2.76,0,0,1,2.28-1,2.67,2.67,0,0,1,1.27.28,2.13,2.13,0,0,1,.88.88l0-1h1.89Zm-1.89-3.25a2.9,2.9,0,0,0-.4-1.6,1.44,1.44,0,0,0-1.29-.62,1.37,1.37,0,0,0-1.2.59,2.45,2.45,0,0,0-.41,1.47,2.94,2.94,0,0,0,.37,1.53,1.35,1.35,0,0,0,1.24.63,1.49,1.49,0,0,0,1.25-.57A2.3,2.3,0,0,0,175.31,70.22Z"/><path class="cls-2" d="M180.43,70.78a1.87,1.87,0,0,0,.46,1.39,1.77,1.77,0,0,0,1.31.46,1.88,1.88,0,0,0,1-.29,1.22,1.22,0,0,0,.54-.66h1.75a3.48,3.48,0,0,1-1.26,1.86,3.69,3.69,0,0,1-2.13.59,3.56,3.56,0,0,1-2.69-1.06,3.86,3.86,0,0,1-1-2.75,3.78,3.78,0,0,1,1-2.73,3.48,3.48,0,0,1,2.66-1.09,3,3,0,0,1,2.62,1.24,5,5,0,0,1,.9,3Zm3.23-1.26a2.12,2.12,0,0,0-.5-1.15,1.46,1.46,0,0,0-1.08-.37,1.52,1.52,0,0,0-1.25.49,1.6,1.6,0,0,0-.4,1Z"/><path class="cls-2" d="M186.82,66.7h1.89v1a2.65,2.65,0,0,1,1-.9,2.72,2.72,0,0,1,1.26-.3,2.43,2.43,0,0,1,2.07.76,3.63,3.63,0,0,1,.58,2.22v4.45h-2V69.85c0-1.19-.43-1.78-1.27-1.78a1.4,1.4,0,0,0-1.19.48,2.79,2.79,0,0,0-.35,1.59v3.79h-2Z"/><path class="cls-2" d="M197.16,65.59h-2V64h2Zm-2,1.11h2v7.23h-2Z"/><path class="cls-2" d="M200.36,70.78a1.91,1.91,0,0,0,.46,1.39,1.78,1.78,0,0,0,1.32.46,1.87,1.87,0,0,0,1-.29,1.18,1.18,0,0,0,.54-.66h1.75a3.48,3.48,0,0,1-1.26,1.86,3.63,3.63,0,0,1-2.12.59,3.53,3.53,0,0,1-2.69-1.06,4.22,4.22,0,0,1,0-5.48,3.51,3.51,0,0,1,2.67-1.09,3,3,0,0,1,2.61,1.24,5,5,0,0,1,.9,3Zm3.23-1.26a2.12,2.12,0,0,0-.5-1.15A1.43,1.43,0,0,0,202,68a1.5,1.5,0,0,0-1.24.49,1.61,1.61,0,0,0-.41,1Z"/><path class="cls-2" d="M206.75,66.7h1.89V68a2.58,2.58,0,0,1,1-1.1A2.48,2.48,0,0,1,211,66.5a1.55,1.55,0,0,1,.43.07v1.85a3,3,0,0,0-.71-.07,1.71,1.71,0,0,0-1.49.64,2.81,2.81,0,0,0-.47,1.68v3.26h-2Z"/><path class="cls-2" d="M213.58,65.8H212.2l1.34-2h2.2Zm-1.33.9h2v7.23h-2Z"/><path class="cls-2" d="M215.72,68.92a2,2,0,0,1,1-1.84,4.7,4.7,0,0,1,2.41-.58,5.23,5.23,0,0,1,2.26.44,1.65,1.65,0,0,1,.92,1.62v3.76a7.1,7.1,0,0,0,.06,1,1.62,1.62,0,0,0,.19.64h-2c0-.16-.08-.28-.1-.38a1,1,0,0,1,0-.32,2.71,2.71,0,0,1-1.08.67,4.07,4.07,0,0,1-1.35.23,2.76,2.76,0,0,1-1.78-.55A1.92,1.92,0,0,1,215.5,72a1.81,1.81,0,0,1,.66-1.58,3.69,3.69,0,0,1,1.64-.6c.65-.09,1.25-.17,1.8-.26s.71-.35.71-.71A.83.83,0,0,0,220,68a1.91,1.91,0,0,0-1-.2,1.42,1.42,0,0,0-.92.27,1.11,1.11,0,0,0-.39.82Zm4.59,1.47a1.87,1.87,0,0,1-.88.3l-1,.16a1.67,1.67,0,0,0-.65.3.84.84,0,0,0-.3.72.77.77,0,0,0,.33.72,1.65,1.65,0,0,0,.89.21,1.39,1.39,0,0,0,1.3-.53,2.22,2.22,0,0,0,.31-1.14Z"/><path class="cls-3" d="M72.65,92.69a2.26,2.26,0,0,1-.61,1.7,2.4,2.4,0,0,1-1.73.58,2.63,2.63,0,0,1-1.81-.56,2.2,2.2,0,0,1-.63-1.72v-3.8h.79v3.8a1.57,1.57,0,0,0,.43,1.2,1.66,1.66,0,0,0,1.22.42,1.52,1.52,0,0,0,1.15-.42,1.69,1.69,0,0,0,.4-1.2v-3.8h.79Z"/><path class="cls-3" d="M73.9,88.89h.84l3.13,4.82,0-4.82h.75v5.94h-.87l-3.1-4.75,0,4.75H73.9Z"/><path class="cls-3" d="M80,88.89h.79v5.94H80Z"/><path class="cls-3" d="M84.41,94.83h-.9l-2.1-5.94h.86L84,94.05l1.74-5.16h.82Z"/><path class="cls-3" d="M87.15,88.89h4.1v.67H87.94v1.89H91v.66H87.94v2.06h3.34v.66H87.15Z"/><path class="cls-3" d="M92.24,88.89H95a1.94,1.94,0,0,1,1.32.42,1.44,1.44,0,0,1,.48,1.14,1.72,1.72,0,0,1-.25,1,1.32,1.32,0,0,1-.78.54.94.94,0,0,1,.66.42,1.89,1.89,0,0,1,.23.79c0,.32,0,.62.07.92a1.48,1.48,0,0,0,.28.75h-.88a1.19,1.19,0,0,1-.15-.7,5.56,5.56,0,0,0-.07-.76,1.43,1.43,0,0,0-.33-.87,1,1,0,0,0-.65-.2H93v2.53h-.79Zm2.43,2.74a1.94,1.94,0,0,0,1-.22.91.91,0,0,0,.36-.84,1,1,0,0,0-.26-.73,1,1,0,0,0-.79-.28H93v2.07Z"/><path class="cls-3" d="M101.37,90.63a1.28,1.28,0,0,0-.46-.91,1.58,1.58,0,0,0-1-.29,1.77,1.77,0,0,0-1,.23.85.85,0,0,0-.37.78.62.62,0,0,0,.39.64,10.4,10.4,0,0,0,1.52.42,3,3,0,0,1,1.51.67,1.47,1.47,0,0,1,.38,1,1.49,1.49,0,0,1-.7,1.33,3,3,0,0,1-1.62.44,2.84,2.84,0,0,1-1.77-.52,1.87,1.87,0,0,1-.69-1.57h.75a1.25,1.25,0,0,0,.5,1.07,2.34,2.34,0,0,0,2.3.11.87.87,0,0,0,.44-.83.77.77,0,0,0-.57-.81,13.74,13.74,0,0,0-1.52-.4,2.71,2.71,0,0,1-1.34-.58,1.29,1.29,0,0,1-.38-.94,1.48,1.48,0,0,1,.63-1.3,2.63,2.63,0,0,1,1.53-.44,2.56,2.56,0,0,1,1.58.47,1.68,1.68,0,0,1,.61,1.4Z"/><path class="cls-3" d="M103.36,88.89h.79v5.94h-.79Z"/><path class="cls-3" d="M105.48,88.89h2a2.93,2.93,0,0,1,2.12.71,2.8,2.8,0,0,1,.73,2.12,3.37,3.37,0,0,1-.7,2.32,2.7,2.7,0,0,1-2.15.79h-2Zm.79,5.28h1.31a2.32,2.32,0,0,0,1.36-.46,2.2,2.2,0,0,0,.64-1.88,2.7,2.7,0,0,0-.46-1.69,1.83,1.83,0,0,0-1.52-.58h-1.33Z"/><path class="cls-3" d="M113,88.89h.87l2.32,5.94h-.88l-.64-1.8H112.1l-.65,1.79h-.82Zm-.6,3.49h2l-1-2.76Z"/><path class="cls-3" d="M116.72,88.89h2a3,3,0,0,1,2.13.71,2.83,2.83,0,0,1,.72,2.12,3.42,3.42,0,0,1-.69,2.32,2.71,2.71,0,0,1-2.16.79h-2Zm.79,5.28h1.32a2.34,2.34,0,0,0,1.36-.46,2.23,2.23,0,0,0,.63-1.88,2.64,2.64,0,0,0-.46-1.69,1.82,1.82,0,0,0-1.52-.58h-1.33Z"/><path class="cls-3" d="M124.89,88.89h2a2.92,2.92,0,0,1,2.12.71,2.8,2.8,0,0,1,.73,2.12,3.42,3.42,0,0,1-.69,2.32,2.72,2.72,0,0,1-2.16.79h-2Zm.79,5.28H127a2.34,2.34,0,0,0,1.36-.46,2.23,2.23,0,0,0,.63-1.88,2.64,2.64,0,0,0-.46-1.69,1.82,1.82,0,0,0-1.52-.58h-1.33Z"/><path class="cls-3" d="M130.75,88.89h4.1v.67h-3.31v1.89h3.08v.66h-3.08v2.06h3.33v.66h-4.12Z"/><path class="cls-3" d="M138.14,88.89h2.16a8.42,8.42,0,0,1,.95,0,1.55,1.55,0,0,1,.66.2,1.35,1.35,0,0,1,.47.48,1.51,1.51,0,0,1,0,1.55,1.44,1.44,0,0,1-.64.52,1.4,1.4,0,0,1,.84.51,1.52,1.52,0,0,1,.29.94,1.69,1.69,0,0,1-.48,1.2,1.73,1.73,0,0,1-1.33.5h-2.87Zm.79,2.56h1.58a1.54,1.54,0,0,0,1-.24.83.83,0,0,0,.31-.71.78.78,0,0,0-.34-.75,1.84,1.84,0,0,0-.93-.19h-1.58Zm0,2.72h2a1.14,1.14,0,0,0,.82-.29,1,1,0,0,0,.3-.78.83.83,0,0,0-.36-.76,1.73,1.73,0,0,0-.93-.23h-1.81Z"/><path class="cls-3" d="M148.58,92.69a2.22,2.22,0,0,1-.61,1.7,2.38,2.38,0,0,1-1.73.58,2.59,2.59,0,0,1-1.8-.56,2.2,2.2,0,0,1-.63-1.72v-3.8h.79v3.8a1.61,1.61,0,0,0,.42,1.2,1.66,1.66,0,0,0,1.22.42,1.5,1.5,0,0,0,1.15-.42,1.64,1.64,0,0,0,.4-1.2v-3.8h.79Z"/><path class="cls-3" d="M149.85,88.89H154v.67h-3.31v1.89h3.08v.66h-3.08v2.06H154v.66h-4.12Z"/><path class="cls-3" d="M154.92,88.89h.84l3.13,4.82V88.89h.75v5.94h-.87l-3.1-4.75v4.75h-.75Z"/><path class="cls-3" d="M163.44,88.76a2.56,2.56,0,0,1,2.1.91,3.6,3.6,0,0,1,0,4.4,2.89,2.89,0,0,1-4.19,0,3.6,3.6,0,0,1,0-4.4A2.55,2.55,0,0,1,163.44,88.76Zm0,5.55a1.78,1.78,0,0,0,1.54-.72,2.83,2.83,0,0,0,.52-1.72,2.86,2.86,0,0,0-.52-1.73,2,2,0,0,0-3.07,0,2.86,2.86,0,0,0-.52,1.73,2.83,2.83,0,0,0,.52,1.72A1.78,1.78,0,0,0,163.44,94.31Z"/><path class="cls-3" d="M170.69,90.63a1.27,1.27,0,0,0-.45-.91,1.62,1.62,0,0,0-1-.29,1.74,1.74,0,0,0-.95.23.84.84,0,0,0-.38.78.62.62,0,0,0,.39.64,10.81,10.81,0,0,0,1.52.42,3,3,0,0,1,1.51.67,1.6,1.6,0,0,1-.32,2.36,3,3,0,0,1-1.62.44,2.84,2.84,0,0,1-1.77-.52,1.87,1.87,0,0,1-.69-1.57h.75a1.25,1.25,0,0,0,.5,1.07,2,2,0,0,0,1.23.36,2.11,2.11,0,0,0,1.08-.25.89.89,0,0,0,.43-.83.77.77,0,0,0-.56-.81,14,14,0,0,0-1.53-.4,2.62,2.62,0,0,1-1.33-.58,1.25,1.25,0,0,1-.38-.94,1.48,1.48,0,0,1,.63-1.3,2.87,2.87,0,0,1,3.1,0,1.66,1.66,0,0,1,.61,1.4Z"/><path class="cls-3" d="M176.57,88.89h.87l2.32,5.94h-.88l-.64-1.8h-2.51l-.66,1.79h-.82ZM176,92.38h2l-1-2.76Z"/><path class="cls-3" d="M180.38,88.89h.79v5.94h-.79Z"/><path class="cls-3" d="M182.5,88.89h2.8a1.94,1.94,0,0,1,1.32.42,1.44,1.44,0,0,1,.48,1.14,1.72,1.72,0,0,1-.25,1,1.32,1.32,0,0,1-.78.54.94.94,0,0,1,.66.42,1.89,1.89,0,0,1,.22.79c0,.32.05.62.08.92a1.48,1.48,0,0,0,.28.75h-.88a1.25,1.25,0,0,1-.16-.7,4.61,4.61,0,0,0-.06-.76,1.37,1.37,0,0,0-.34-.87,1,1,0,0,0-.65-.2h-1.93v2.53h-.79Zm2.44,2.74a1.94,1.94,0,0,0,1-.22.91.91,0,0,0,.36-.84.94.94,0,0,0-1.05-1h-2v2.07Z"/><path class="cls-3" d="M188.2,88.89h4.1v.67H189v1.89h3.09v.66H189v2.06h3.34v.66H188.2Z"/><path class="cls-3" d="M196.72,90.63a1.28,1.28,0,0,0-.46-.91,1.59,1.59,0,0,0-1-.29,1.74,1.74,0,0,0-1,.23.86.86,0,0,0-.38.78.62.62,0,0,0,.39.64,10.65,10.65,0,0,0,1.53.42,3,3,0,0,1,1.51.67,1.47,1.47,0,0,1,.38,1,1.49,1.49,0,0,1-.7,1.33,3,3,0,0,1-1.63.44,2.83,2.83,0,0,1-1.76-.52,1.87,1.87,0,0,1-.69-1.57h.75a1.24,1.24,0,0,0,.49,1.07,2.36,2.36,0,0,0,2.31.11.87.87,0,0,0,.44-.83.77.77,0,0,0-.57-.81,13.74,13.74,0,0,0-1.52-.4,2.67,2.67,0,0,1-1.34-.58,1.29,1.29,0,0,1-.38-.94,1.48,1.48,0,0,1,.63-1.3,2.63,2.63,0,0,1,1.53-.44,2.51,2.51,0,0,1,1.57.47,1.66,1.66,0,0,1,.62,1.4Z"/><rect class="cls-3" x="67.74" y="81.26" width="129.69" height="0.67"/></svg>