<svg id="Capa_1" data-name="Capa 1" xmlns="http://www.w3.org/2000/svg" xmlns:xlink="http://www.w3.org/1999/xlink" viewBox="0 0 230 140"><defs><style>.cls-1{fill:none;}.cls-2{clip-path:url(#clip-path);}.cls-3{fill:#1d1d1b;}.cls-4{fill:#0094da;}.cls-5{clip-path:url(#clip-path-2);}.cls-6{clip-path:url(#clip-path-3);}.cls-7{clip-path:url(#clip-path-4);}.cls-8{clip-path:url(#clip-path-5);}.cls-9{fill:#fff;}.cls-10{clip-path:url(#clip-path-6);}</style><clipPath id="clip-path"><rect class="cls-1" x="10.7" y="51.55" width="42.62" height="53.64"/></clipPath><clipPath id="clip-path-2"><polygon class="cls-1" points="50.21 103.69 12.6 103.69 12.4 76.25 48.3 76.44 50.21 103.69"/></clipPath><clipPath id="clip-path-3"><rect class="cls-1" x="16.37" y="61.98" width="31.11" height="39.16"/></clipPath><clipPath id="clip-path-4"><rect class="cls-1" x="27.7" y="34.81" width="14.33" height="13.82"/></clipPath><clipPath id="clip-path-5"><rect class="cls-1" x="24.24" y="50.64" width="16.08" height="2.57"/></clipPath><clipPath id="clip-path-6"><rect class="cls-1" x="30.36" y="76.33" width="2.88" height="14.78"/></clipPath></defs><g class="cls-2"><path class="cls-3" d="M49.22,104.38H14.72A3.15,3.15,0,0,1,12,103.1a3.11,3.11,0,0,1-.13-3L25,68.12a23.76,23.76,0,0,0,1.52-7.64V52.11A4.47,4.47,0,0,1,31,47.65h2a4.42,4.42,0,0,1,4.42,4.42l0,8.28A23.58,23.58,0,0,0,38.88,68l13.21,32.1a2.92,2.92,0,0,1-2.87,4.29ZM31,48.44a3.68,3.68,0,0,0-3.66,3.67v8.37a24.76,24.76,0,0,1-1.58,7.94l-13.18,32a2.37,2.37,0,0,0,.06,2.27,2.37,2.37,0,0,0,2.08.93h34.5a2.36,2.36,0,0,0,2.07-.93,2.4,2.4,0,0,0,.07-2.27L38.15,68.29a24.57,24.57,0,0,1-1.56-7.94l0-8.28A3.64,3.64,0,0,0,33,48.44H31Z"/></g><path class="cls-4" d="M37,40.9a9,9,0,0,0,1.36,1.91,7.77,7.77,0,0,0,.86.77,6.57,6.57,0,0,0,1,.58,4.11,4.11,0,0,0,1.07.32,1.78,1.78,0,0,0,.56.06,2.62,2.62,0,0,0,.56,0,4.69,4.69,0,0,0,1.1-.23,11.08,11.08,0,0,0,1.09-.39c1.46-.57,2.88-1.23,4.44-1.7a8.65,8.65,0,0,1,2.43-.35,14.8,14.8,0,0,1,2.41.23l-.33.68a19.49,19.49,0,0,0-1.82-1.4c-.64-.43-1.3-.84-2-1.21-.34-.17-.67-.38-1-.52s-.7-.33-1.06-.47l-1.09-.38c-.36-.11-.73-.2-1.1-.3a7.41,7.41,0,0,0-1.13-.19l-.57-.08H43.2a4.35,4.35,0,0,0-1.14.07,11.2,11.2,0,0,0-1.13.21l-1.08.39a7.16,7.16,0,0,0-1,.56l-.51.29-.43.38Zm0,0,.82-.85.41-.43.49-.34a9.51,9.51,0,0,1,1-.65l1.1-.49A11.08,11.08,0,0,1,42,37.86a4.8,4.8,0,0,1,1.2-.13l.6,0c.2,0,.4,0,.6,0a9.58,9.58,0,0,1,1.2.14c.39.09.79.16,1.17.27l1.14.38c.38.14.74.31,1.11.46s.71.35,1.07.53a23.72,23.72,0,0,1,2.06,1.22,21.34,21.34,0,0,1,1.93,1.43l1.11,1-1.44-.27a9.85,9.85,0,0,0-4.52,0c-1.47.4-2.92,1.09-4.42,1.58-.38.12-.74.26-1.15.35a5.1,5.1,0,0,1-1.22.2,3.22,3.22,0,0,1-.62,0,2.5,2.5,0,0,1-.61-.09A4.73,4.73,0,0,1,40,44.5a5.74,5.74,0,0,1-1-.69A8.5,8.5,0,0,1,38.2,43,8.16,8.16,0,0,1,37,40.9Z"/><path class="cls-4" d="M36.06,39.22A3.39,3.39,0,0,1,35.5,37a4.22,4.22,0,0,1,.25-1.16,5.29,5.29,0,0,1,.52-1.07,6,6,0,0,1,.71-1,7.39,7.39,0,0,1,.82-.86,10.8,10.8,0,0,1,.89-.76,9.29,9.29,0,0,1,1-.7c.66-.44,1.29-.83,1.93-1.27A13.14,13.14,0,0,0,43.3,28.8,6.8,6.8,0,0,0,44,28a3,3,0,0,0,.46-.91,1.43,1.43,0,0,0,0-.89,1.39,1.39,0,0,0-.53-.7l.36-.66a9.84,9.84,0,0,1,1.5,1A10.15,10.15,0,0,1,47.13,27c.21.21.38.47.57.7a6.06,6.06,0,0,1,.48.76,5.12,5.12,0,0,1,.39.82,3.33,3.33,0,0,1,.28.86,3.48,3.48,0,0,1,.16.89,5.43,5.43,0,0,1,0,.9l-.08.9c0,.29-.16.57-.23.86a3.85,3.85,0,0,1-.31.82l-.38.8a8.35,8.35,0,0,1-.47.74l-.5.71.41-.77c.12-.26.29-.49.39-.76l.3-.81a3,3,0,0,0,.23-.82c.05-.28.12-.55.16-.83l0-.84a5.69,5.69,0,0,0-.08-.83,3.68,3.68,0,0,0-.19-.81,3.42,3.42,0,0,0-.3-.77,4,4,0,0,0-.4-.73,8.19,8.19,0,0,0-.47-.68,6.76,6.76,0,0,0-.54-.64,8.85,8.85,0,0,0-1.25-1.12A9.21,9.21,0,0,0,44,25.48l.35-.66a2.17,2.17,0,0,1,.88,1.09,2.21,2.21,0,0,1,0,1.37,3.85,3.85,0,0,1-.59,1.14,8,8,0,0,1-.81.91A14.64,14.64,0,0,1,42,30.81c-.64.41-1.33.82-2,1.23a9.66,9.66,0,0,0-1,.62,8.47,8.47,0,0,0-.89.69,6,6,0,0,0-.82.77,6.56,6.56,0,0,0-.72.86,6.16,6.16,0,0,0-.56,1A4,4,0,0,0,35.73,37,3.47,3.47,0,0,0,36.06,39.22Z"/><g class="cls-5"><g class="cls-6"><path class="cls-4" d="M31.17,59.43a2.94,2.94,0,0,0-2.93,2.93v6.18a17.4,17.4,0,0,1-1.12,5.62l-9.64,23.4a1.82,1.82,0,0,0,1.8,2.7H44.52a1.82,1.82,0,0,0,1.81-2.7l-9.67-23.5a17.65,17.65,0,0,1-1.1-5.62V62.33a2.91,2.91,0,0,0-2.91-2.91Z"/></g></g><path class="cls-4" d="M57.34,82.34h1.13v5.47h3.28v1H57.34Z"/><path class="cls-4" d="M66.29,87.75c0,.23.08.35.24.35h.26v.7l-.33.08-.33,0a1.09,1.09,0,0,1-.55-.12.72.72,0,0,1-.26-.45,1.85,1.85,0,0,1-.72.43,2.94,2.94,0,0,1-.88.14,1.81,1.81,0,0,1-1.13-.35,1.19,1.19,0,0,1-.46-1,1.13,1.13,0,0,1,.47-1.07,3,3,0,0,1,1.14-.37c.45-.06.83-.11,1.16-.17a.5.5,0,0,0,.42-.5.49.49,0,0,0-.28-.5,1.59,1.59,0,0,0-.68-.14,1.28,1.28,0,0,0-.72.19.71.71,0,0,0-.31.55h-1a1.27,1.27,0,0,1,.61-1.19A2.91,2.91,0,0,1,64.42,84a2.45,2.45,0,0,1,1.32.34,1.1,1.1,0,0,1,.55,1Zm-1-1.3a1.6,1.6,0,0,1-.56.18l-.73.1a1.33,1.33,0,0,0-.59.23.62.62,0,0,0-.22.54.49.49,0,0,0,.29.46,1.58,1.58,0,0,0,.65.14,1.51,1.51,0,0,0,.79-.23.72.72,0,0,0,.37-.66Z"/><path class="cls-4" d="M67.43,82.34h1v2.38a1.45,1.45,0,0,1,.61-.53,1.76,1.76,0,0,1,.8-.2,2,2,0,0,1,1.62.7,2.79,2.79,0,0,1,.56,1.78,2.82,2.82,0,0,1-.52,1.73,1.71,1.71,0,0,1-1.49.71,2.44,2.44,0,0,1-1-.17,1.18,1.18,0,0,1-.65-.59l0,.64h-1Zm2.29,2.46a1.17,1.17,0,0,0-1,.45,2,2,0,0,0-.34,1.21,1.92,1.92,0,0,0,.35,1.18,1.14,1.14,0,0,0,1,.46,1.1,1.1,0,0,0,1-.48A2.08,2.08,0,0,0,71,86.46a2,2,0,0,0-.34-1.17A1.11,1.11,0,0,0,69.72,84.8Z"/><path class="cls-4" d="M72.7,86.45a2.53,2.53,0,0,1,.63-1.78,2.54,2.54,0,0,1,3.46,0,2.87,2.87,0,0,1,0,3.56,2.26,2.26,0,0,1-1.73.68,2.23,2.23,0,0,1-1.73-.68A2.51,2.51,0,0,1,72.7,86.45Zm3.68,0A2,2,0,0,0,76,85.29a1.12,1.12,0,0,0-1-.49,1.11,1.11,0,0,0-1,.49,2.15,2.15,0,0,0,0,2.32,1.24,1.24,0,0,0,2,0A2,2,0,0,0,76.38,86.45Z"/><path class="cls-4" d="M78.27,84.12h1V85a1.54,1.54,0,0,1,1.38-1h.23L81,84v1l-.23,0a.82.82,0,0,0-.21,0,1.12,1.12,0,0,0-.9.42,1.76,1.76,0,0,0-.36,1.17v2.23h-1Z"/><path class="cls-4" d="M85.36,87.75c0,.23.08.35.24.35h.25v.7l-.33.08-.32,0a1,1,0,0,1-.55-.12.67.67,0,0,1-.26-.45,1.85,1.85,0,0,1-.72.43,3,3,0,0,1-.89.14,1.85,1.85,0,0,1-1.13-.35,1.22,1.22,0,0,1-.46-1,1.13,1.13,0,0,1,.48-1.07,3,3,0,0,1,1.14-.37c.45-.06.83-.11,1.16-.17a.5.5,0,0,0,.42-.5.49.49,0,0,0-.28-.5,1.59,1.59,0,0,0-.68-.14,1.28,1.28,0,0,0-.72.19.68.68,0,0,0-.31.55h-1A1.27,1.27,0,0,1,82,84.35,2.91,2.91,0,0,1,83.49,84a2.45,2.45,0,0,1,1.32.34,1.12,1.12,0,0,1,.55,1Zm-1-1.3a1.67,1.67,0,0,1-.56.18l-.73.1a1.28,1.28,0,0,0-.59.23.63.63,0,0,0-.23.54.48.48,0,0,0,.3.46,1.58,1.58,0,0,0,.65.14,1.51,1.51,0,0,0,.79-.23.74.74,0,0,0,.37-.66Z"/><path class="cls-4" d="M86,84.12h.78v-1.4h1v1.4h.93v.77H87.8v2.5a1,1,0,0,0,.09.5c.06.09.19.14.41.14h.11a1,1,0,0,0,.32,0v.8a2.33,2.33,0,0,0-.33,0l-.33,0a1.4,1.4,0,0,1-1-.28,1.29,1.29,0,0,1-.26-.91V84.89H86Z"/><path class="cls-4" d="M89.26,86.45a2.53,2.53,0,0,1,.63-1.78A2.22,2.22,0,0,1,91.61,84a2.27,2.27,0,0,1,1.74.68,2.85,2.85,0,0,1,0,3.56,2.24,2.24,0,0,1-1.73.68,2.22,2.22,0,0,1-1.72-.68A2.51,2.51,0,0,1,89.26,86.45Zm3.68,0a2,2,0,0,0-.34-1.16,1.13,1.13,0,0,0-1-.49,1.1,1.1,0,0,0-1,.49,2.15,2.15,0,0,0,0,2.32,1.1,1.1,0,0,0,1,.49,1.12,1.12,0,0,0,1-.48A2,2,0,0,0,92.94,86.45Z"/><path class="cls-4" d="M94.83,84.12h1V85a1.49,1.49,0,0,1,.52-.71,1.4,1.4,0,0,1,.87-.32h.23l.15,0v1l-.23,0a.86.86,0,0,0-.21,0,1.14,1.14,0,0,0-.91.42,1.81,1.81,0,0,0-.35,1.17v2.23h-1Z"/><path class="cls-4" d="M98,82.34h1v1H98Zm0,1.78h1v4.67H98Z"/><path class="cls-4" d="M100,86.45a2.57,2.57,0,0,1,.62-1.78,2.55,2.55,0,0,1,3.47,0,2.85,2.85,0,0,1,0,3.56,2.54,2.54,0,0,1-3.46,0A2.55,2.55,0,0,1,100,86.45Zm3.68,0a2,2,0,0,0-.34-1.16,1.25,1.25,0,0,0-2,0,2.15,2.15,0,0,0,0,2.32,1.25,1.25,0,0,0,2,0A2,2,0,0,0,103.65,86.45Z"/><path class="cls-4" d="M112.44,88.79h-1v-.64a1.27,1.27,0,0,1-.6.57,1.92,1.92,0,0,1-.87.19,2,2,0,0,1-1.62-.69,2.82,2.82,0,0,1-.56-1.8,2.54,2.54,0,0,1,.59-1.81,1.92,1.92,0,0,1,1.43-.62,2.3,2.3,0,0,1,.9.18,1.43,1.43,0,0,1,.66.55V82.34h1Zm-2.29-.69a1.13,1.13,0,0,0,1-.48,2.06,2.06,0,0,0,.33-1.17,1.89,1.89,0,0,0-.35-1.21,1.15,1.15,0,0,0-1-.44,1.12,1.12,0,0,0-1,.5,2.19,2.19,0,0,0-.32,1.2,1.87,1.87,0,0,0,.33,1.13A1.09,1.09,0,0,0,110.15,88.1Z"/><path class="cls-4" d="M114.37,86.72a1.56,1.56,0,0,0,.31,1,1.17,1.17,0,0,0,.95.39,1.1,1.1,0,0,0,1.14-.78h1a1.85,1.85,0,0,1-.74,1.17,2.29,2.29,0,0,1-1.37.42,2.1,2.1,0,0,1-1.68-.68,2.56,2.56,0,0,1-.6-1.77,2.59,2.59,0,0,1,.61-1.75,2.23,2.23,0,0,1,3.26,0,2.47,2.47,0,0,1,.61,1.69c0,.1,0,.22,0,.34Zm2.4-.68a1.24,1.24,0,0,0-.34-.87,1.1,1.1,0,0,0-.84-.37,1.16,1.16,0,0,0-.88.36,1.2,1.2,0,0,0-.34.88Z"/><path class="cls-4" d="M127,88.76l-.56.62-.93-.83a3,3,0,0,1-.73.29,3.48,3.48,0,0,1-.79.09,2.82,2.82,0,0,1-2.25-1,3.51,3.51,0,0,1-.84-2.4,3.55,3.55,0,0,1,.84-2.4,3.09,3.09,0,0,1,4.5,0,3.55,3.55,0,0,1,.84,2.4,4.16,4.16,0,0,1-.22,1.38,2.75,2.75,0,0,1-.69,1.09Zm-2.94-1.46.54-.63.79.69a2.18,2.18,0,0,0,.43-.81,3.42,3.42,0,0,0,.13-1,3,3,0,0,0-.49-1.74,1.88,1.88,0,0,0-2.94,0,3.3,3.3,0,0,0,0,3.46,1.84,1.84,0,0,0,1.84.68,1.3,1.3,0,0,0,.35-.11Z"/><path class="cls-4" d="M132.05,88.79h-1v-.66a1.43,1.43,0,0,1-.58.56,1.45,1.45,0,0,1-.76.22,1.74,1.74,0,0,1-1.33-.45,2,2,0,0,1-.42-1.38v-3h1V87a1.32,1.32,0,0,0,.23.86.87.87,0,0,0,.68.26,1.09,1.09,0,0,0,.88-.34,1.47,1.47,0,0,0,.27-.93V84.12h1Z"/><path class="cls-4" d="M133.81,82.19H135l-1.28,1.29H133Zm-.65,6.6V84.12h1v4.67Z"/><path class="cls-4" d="M135.31,84.12h1v.65a2,2,0,0,1,.61-.58,1.64,1.64,0,0,1,.85-.2,1.52,1.52,0,0,1,.81.2,1.06,1.06,0,0,1,.5.58,1.88,1.88,0,0,1,.62-.58,1.68,1.68,0,0,1,.84-.2,1.66,1.66,0,0,1,1.17.37,1.6,1.6,0,0,1,.39,1.2v3.23h-1V86.06a2.21,2.21,0,0,0-.15-1c-.09-.2-.33-.3-.69-.3a.89.89,0,0,0-.76.32,1.56,1.56,0,0,0-.24.93v2.74h-1v-3A1.26,1.26,0,0,0,138,85a.75.75,0,0,0-.64-.24,1,1,0,0,0-.72.32,1.26,1.26,0,0,0-.3.89v2.78h-1Z"/><path class="cls-4" d="M143.19,82.34h1v1h-1Zm0,1.78h1v4.67h-1Z"/><path class="cls-4" d="M148.49,85.68a1,1,0,0,0-.34-.65,1.13,1.13,0,0,0-.72-.23,1.25,1.25,0,0,0-.9.38,1.8,1.8,0,0,0-.38,1.32,2,2,0,0,0,.3,1.13,1,1,0,0,0,.93.47,1,1,0,0,0,.74-.28,1.3,1.3,0,0,0,.37-.79h1a2.26,2.26,0,0,1-.7,1.4,2.41,2.41,0,0,1-3.11-.19,2.52,2.52,0,0,1-.6-1.74,2.68,2.68,0,0,1,.59-1.81,2.12,2.12,0,0,1,1.71-.7,2.35,2.35,0,0,1,1.45.43,1.71,1.71,0,0,1,.66,1.26Z"/><path class="cls-4" d="M154.27,87.75c0,.23.08.35.25.35h.25v.7l-.33.08-.33,0a1,1,0,0,1-.54-.12.67.67,0,0,1-.26-.45,2,2,0,0,1-.73.43,2.94,2.94,0,0,1-.88.14,1.81,1.81,0,0,1-1.13-.35,1.19,1.19,0,0,1-.46-1,1.15,1.15,0,0,1,.47-1.07,3,3,0,0,1,1.15-.37c.44-.06.83-.11,1.15-.17a.51.51,0,0,0,.43-.5.5.5,0,0,0-.29-.5,1.59,1.59,0,0,0-.68-.14,1.33,1.33,0,0,0-.72.19.74.74,0,0,0-.31.55h-1a1.27,1.27,0,0,1,.61-1.19A2.94,2.94,0,0,1,152.4,84a2.45,2.45,0,0,1,1.32.34,1.1,1.1,0,0,1,.55,1Zm-1-1.3a1.6,1.6,0,0,1-.56.18l-.73.1a1.33,1.33,0,0,0-.59.23.62.62,0,0,0-.22.54.48.48,0,0,0,.3.46,1.55,1.55,0,0,0,.65.14,1.45,1.45,0,0,0,.78-.23.72.72,0,0,0,.37-.66Z"/><path class="cls-4" d="M162.29,88.79h-1v-.64a1.21,1.21,0,0,1-.59.57,1.92,1.92,0,0,1-.87.19,2,2,0,0,1-1.62-.69,2.77,2.77,0,0,1-.56-1.8,2.5,2.5,0,0,1,.59-1.81,1.91,1.91,0,0,1,1.43-.62,2.33,2.33,0,0,1,.9.18,1.41,1.41,0,0,1,.65.55l0-2.38h1ZM160,88.1a1.12,1.12,0,0,0,1-.48,2.06,2.06,0,0,0,.33-1.17,1.89,1.89,0,0,0-.34-1.21,1.16,1.16,0,0,0-1-.44,1.09,1.09,0,0,0-1,.5,2.11,2.11,0,0,0-.32,1.2,1.87,1.87,0,0,0,.33,1.13A1.09,1.09,0,0,0,160,88.1Z"/><path class="cls-4" d="M164.21,86.72a1.57,1.57,0,0,0,.32,1,1.15,1.15,0,0,0,.94.39,1.09,1.09,0,0,0,1.14-.78h1a1.94,1.94,0,0,1-.74,1.17,2.29,2.29,0,0,1-1.37.42,2.1,2.1,0,0,1-1.68-.68,2.57,2.57,0,0,1-.61-1.77,2.6,2.6,0,0,1,.62-1.75,2.21,2.21,0,0,1,3.25,0,2.44,2.44,0,0,1,.62,1.69,2.14,2.14,0,0,1,0,.34Zm2.4-.68a1.28,1.28,0,0,0-.33-.87,1.1,1.1,0,0,0-.84-.37,1.15,1.15,0,0,0-.88.36,1.21,1.21,0,0,0-.35.88Z"/><path class="cls-4" d="M63.35,96a1.28,1.28,0,0,0,.47,1.09,2,2,0,0,0,1.24.36,1.69,1.69,0,0,0,1.09-.29.93.93,0,0,0,.35-.73.88.88,0,0,0-.15-.55,1.13,1.13,0,0,0-.43-.29,8.1,8.1,0,0,0-.88-.26L63.78,95a1.8,1.8,0,0,1-1-.63,1.77,1.77,0,0,1,.39-2.5,2.91,2.91,0,0,1,1.73-.53,3,3,0,0,1,1.86.57,1.9,1.9,0,0,1,.74,1.59H66.31a1,1,0,0,0-.4-.9,1.8,1.8,0,0,0-1.06-.29,1.7,1.7,0,0,0-.87.21.7.7,0,0,0-.37.67.74.74,0,0,0,.21.55,1.24,1.24,0,0,0,.59.32l2,.52a1.75,1.75,0,0,1,1,.67,1.73,1.73,0,0,1,.34,1,1.79,1.79,0,0,1-.78,1.59,3.35,3.35,0,0,1-1.91.53,3.23,3.23,0,0,1-2-.61,2.13,2.13,0,0,1-.8-1.81Z"/><path class="cls-4" d="M68.55,91.5h1.08v1H68.55Zm0,1.87h1.08v4.89H68.55Z"/><path class="cls-4" d="M71.59,96.69a.79.79,0,0,0,.33.65,1.33,1.33,0,0,0,.78.2,1.51,1.51,0,0,0,.83-.17.55.55,0,0,0,.26-.47.46.46,0,0,0-.31-.48q-.3-.11-1.17-.3a3.57,3.57,0,0,1-1.28-.5,1.28,1.28,0,0,1,.2-2.05,2.88,2.88,0,0,1,1.43-.34,2.46,2.46,0,0,1,1.39.37,1.55,1.55,0,0,1,.66,1.14H73.58a.7.7,0,0,0-.33-.51,1.3,1.3,0,0,0-.67-.15,1.66,1.66,0,0,0-.61.11.4.4,0,0,0-.28.4A.44.44,0,0,0,72,95a10.44,10.44,0,0,0,1.26.33,2.59,2.59,0,0,1,1.28.57,1.22,1.22,0,0,1,.33.86,1.3,1.3,0,0,1-.66,1.2,2.84,2.84,0,0,1-1.53.4A2.61,2.61,0,0,1,71.11,98a1.47,1.47,0,0,1-.6-1.27Z"/><path class="cls-4" d="M75.16,93.37H76V91.89h1.08v1.48h1v.8h-1v2.62a1.06,1.06,0,0,0,.09.53c.06.1.2.15.43.15h.11a1.18,1.18,0,0,0,.34,0v.83l-.35,0a2.58,2.58,0,0,1-.35,0A1.46,1.46,0,0,1,76.25,98a1.41,1.41,0,0,1-.27-1V94.17h-.82Z"/><path class="cls-4" d="M79.62,96.09a1.6,1.6,0,0,0,.33,1,1.18,1.18,0,0,0,1,.41,1.15,1.15,0,0,0,1.2-.81h1A1.93,1.93,0,0,1,82.37,98a2.37,2.37,0,0,1-1.44.45,2.25,2.25,0,0,1-1.76-.71,2.73,2.73,0,0,1-.63-1.87A2.66,2.66,0,0,1,79.19,94a2.12,2.12,0,0,1,1.71-.76,2.18,2.18,0,0,1,1.7.74,2.58,2.58,0,0,1,.65,1.77,2.16,2.16,0,0,1,0,.35Zm2.52-.71a1.35,1.35,0,0,0-.35-.91,1.15,1.15,0,0,0-.89-.39,1.26,1.26,0,0,0-.92.37,1.29,1.29,0,0,0-.36.93Z"/><path class="cls-4" d="M84,93.37h1v.68a2.28,2.28,0,0,1,.64-.61,1.7,1.7,0,0,1,.89-.21,1.65,1.65,0,0,1,.85.21,1.1,1.1,0,0,1,.53.61,2,2,0,0,1,.65-.61,2.06,2.06,0,0,1,2.11.18,1.65,1.65,0,0,1,.41,1.26v3.38H90V95.4a2.45,2.45,0,0,0-.16-1c-.11-.2-.35-.31-.74-.31a.94.94,0,0,0-.79.34,1.65,1.65,0,0,0-.25,1v2.87H87V95.12a1.24,1.24,0,0,0-.19-.78.79.79,0,0,0-.67-.26,1,1,0,0,0-.76.34,1.31,1.31,0,0,0-.31.93v2.91H84Z"/><path class="cls-4" d="M96.32,97.17c0,.25.08.37.26.37h.26v.74a2.14,2.14,0,0,1-.34.08,2.68,2.68,0,0,1-.35,0,1,1,0,0,1-.57-.14.63.63,0,0,1-.27-.46,2,2,0,0,1-.76.45,3,3,0,0,1-.93.15A1.94,1.94,0,0,1,92.43,98,1.26,1.26,0,0,1,92,97a1.22,1.22,0,0,1,.5-1.13,3,3,0,0,1,1.2-.39c.46-.06.87-.11,1.21-.17a.52.52,0,0,0,.45-.53.51.51,0,0,0-.3-.52,1.59,1.59,0,0,0-.72-.15,1.3,1.3,0,0,0-.75.2.74.74,0,0,0-.33.58H92.13a1.33,1.33,0,0,1,.64-1.25,3.12,3.12,0,0,1,1.59-.38,2.64,2.64,0,0,1,1.38.35,1.17,1.17,0,0,1,.58,1.07Zm-1.08-1.36a1.57,1.57,0,0,1-.59.19l-.77.11a1.34,1.34,0,0,0-.62.24.66.66,0,0,0-.23.57.51.51,0,0,0,.31.47,1.58,1.58,0,0,0,.69.15,1.61,1.61,0,0,0,.82-.23.77.77,0,0,0,.39-.7Z"/><path class="cls-4" d="M98.26,96.69a.82.82,0,0,0,.34.65,1.32,1.32,0,0,0,.77.2,1.49,1.49,0,0,0,.83-.17.55.55,0,0,0,.26-.47.45.45,0,0,0-.3-.48q-.3-.11-1.17-.3a3.64,3.64,0,0,1-1.29-.5,1.15,1.15,0,0,1-.41-1,1.12,1.12,0,0,1,.62-1.07,2.87,2.87,0,0,1,1.42-.34,2.42,2.42,0,0,1,1.39.37,1.5,1.5,0,0,1,.66,1.14h-1.12a.73.73,0,0,0-.33-.51,1.36,1.36,0,0,0-.67-.15,1.75,1.75,0,0,0-.62.11.41.41,0,0,0-.27.4.44.44,0,0,0,.31.45,9.91,9.91,0,0,0,1.26.33,2.59,2.59,0,0,1,1.28.57,1.21,1.21,0,0,1,.32.86,1.31,1.31,0,0,1-.65,1.2,2.87,2.87,0,0,1-1.54.4A2.65,2.65,0,0,1,97.78,98a1.47,1.47,0,0,1-.6-1.27Z"/><path class="cls-4" d="M105.05,91.5h1.19v2.69h3.08V91.5h1.18v6.76h-1.18V95.21h-3.08v3.05h-1.19Z"/><path class="cls-4" d="M112.58,96.09a1.6,1.6,0,0,0,.33,1,1.18,1.18,0,0,0,1,.41,1.15,1.15,0,0,0,1.2-.81h1a1.93,1.93,0,0,1-.78,1.22,2.34,2.34,0,0,1-1.43.45,2.27,2.27,0,0,1-1.77-.71,2.73,2.73,0,0,1-.63-1.87,2.66,2.66,0,0,1,.65-1.83,2.13,2.13,0,0,1,1.72-.76,2.15,2.15,0,0,1,1.69.74,2.58,2.58,0,0,1,.65,1.77,2.16,2.16,0,0,1,0,.35Zm2.52-.71a1.35,1.35,0,0,0-.35-.91,1.13,1.13,0,0,0-.88-.39,1.27,1.27,0,0,0-.93.37,1.29,1.29,0,0,0-.36.93Z"/><path class="cls-4" d="M116.47,93.37h.82V91.89h1.08v1.48h1v.8h-1v2.62a1.06,1.06,0,0,0,.09.53c.06.1.2.15.43.15H119a1.22,1.22,0,0,0,.34,0v.83l-.35,0a2.66,2.66,0,0,1-.35,0,1.46,1.46,0,0,1-1.08-.29,1.36,1.36,0,0,1-.28-1V94.17h-.82Z"/><path class="cls-4" d="M120.93,96.09a1.6,1.6,0,0,0,.33,1,1.19,1.19,0,0,0,1,.41,1.15,1.15,0,0,0,1.2-.81h1a2,2,0,0,1-.79,1.22,2.32,2.32,0,0,1-1.43.45,2.28,2.28,0,0,1-1.77-.71,3,3,0,0,1,0-3.7,2.31,2.31,0,0,1,3.41,0,2.58,2.58,0,0,1,.65,1.77,2.16,2.16,0,0,1,0,.35Zm2.52-.71a1.3,1.3,0,0,0-.35-.91,1.13,1.13,0,0,0-.88-.39,1.27,1.27,0,0,0-.93.37,1.29,1.29,0,0,0-.36.93Z"/><path class="cls-4" d="M125.32,93.37h1v.94a1.49,1.49,0,0,1,.54-.74,1.43,1.43,0,0,1,.91-.34H128l.16,0v1l-.25,0-.21,0a1.16,1.16,0,0,0-1,.45,1.81,1.81,0,0,0-.38,1.23v2.33h-1.08Z"/><path class="cls-4" d="M128.39,95.81a2.61,2.61,0,0,1,.66-1.86,2.66,2.66,0,0,1,3.63,0,3,3,0,0,1,0,3.74,2.65,2.65,0,0,1-3.63,0A2.64,2.64,0,0,1,128.39,95.81Zm3.87,0a2,2,0,0,0-.36-1.21,1.15,1.15,0,0,0-1-.52,1.18,1.18,0,0,0-1,.51,2.25,2.25,0,0,0,0,2.44,1.18,1.18,0,0,0,1,.51,1.16,1.16,0,0,0,1-.5A2.08,2.08,0,0,0,132.26,95.81Z"/><path class="cls-4" d="M138.73,98a2,2,0,0,1-.62,1.64,2.58,2.58,0,0,1-1.78.56,3,3,0,0,1-1.53-.37,1.22,1.22,0,0,1-.66-1.15h1.08a.77.77,0,0,0,.39.57,1.76,1.76,0,0,0,.78.14,1.1,1.1,0,0,0,1.26-1.24v-.74A1.73,1.73,0,0,1,137,98a1.67,1.67,0,0,1-.86.22,1.92,1.92,0,0,1-1.64-.72,3,3,0,0,1-.55-1.85,2.64,2.64,0,0,1,.6-1.75,2,2,0,0,1,1.61-.71,1.86,1.86,0,0,1,.87.2,1.37,1.37,0,0,1,.58.61l0-.67h1.08Zm-1.08-2.29a2,2,0,0,0-.32-1.17,1.15,1.15,0,0,0-1-.46,1.08,1.08,0,0,0-1,.5,2.22,2.22,0,0,0-.31,1.21,2,2,0,0,0,.32,1.14,1.1,1.1,0,0,0,1,.48,1.11,1.11,0,0,0,1-.5A2.24,2.24,0,0,0,137.65,95.71Z"/><path class="cls-4" d="M140.63,96.09a1.6,1.6,0,0,0,.33,1,1.18,1.18,0,0,0,1,.41,1.15,1.15,0,0,0,1.2-.81h1a1.93,1.93,0,0,1-.78,1.22,2.32,2.32,0,0,1-1.43.45,2.25,2.25,0,0,1-1.76-.71,3,3,0,0,1,0-3.7,2.31,2.31,0,0,1,3.41,0,2.58,2.58,0,0,1,.65,1.77,2.16,2.16,0,0,1,0,.35Zm2.52-.71a1.35,1.35,0,0,0-.35-.91,1.13,1.13,0,0,0-.88-.39,1.27,1.27,0,0,0-.93.37,1.29,1.29,0,0,0-.36.93Zm-1.16-4h1.29l-1.35,1.35h-.79Z"/><path class="cls-4" d="M145,93.37h1v.73a1.9,1.9,0,0,1,.65-.64,2,2,0,0,1,2.17.2,1.59,1.59,0,0,1,.46,1.24v3.36h-1.08V95.18a1.23,1.23,0,0,0-.24-.83.88.88,0,0,0-.71-.27,1.1,1.1,0,0,0-.86.37,1.31,1.31,0,0,0-.33.92v2.89H145Z"/><path class="cls-4" d="M151.27,96.09a1.6,1.6,0,0,0,.33,1,1.18,1.18,0,0,0,1,.41,1.15,1.15,0,0,0,1.2-.81h1A1.93,1.93,0,0,1,154,98a2.37,2.37,0,0,1-1.44.45,2.25,2.25,0,0,1-1.76-.71,3,3,0,0,1,0-3.7,2.32,2.32,0,0,1,3.42,0,2.58,2.58,0,0,1,.65,1.77,2.16,2.16,0,0,1,0,.35Zm2.52-.71a1.35,1.35,0,0,0-.35-.91,1.15,1.15,0,0,0-.89-.39,1.26,1.26,0,0,0-.92.37,1.29,1.29,0,0,0-.36.93Z"/><path class="cls-4" d="M155.43,95.81a2.61,2.61,0,0,1,.66-1.86,2.66,2.66,0,0,1,3.63,0,3,3,0,0,1,0,3.74,2.65,2.65,0,0,1-3.63,0A2.64,2.64,0,0,1,155.43,95.81Zm3.87,0a2,2,0,0,0-.36-1.21,1.16,1.16,0,0,0-1-.52,1.2,1.2,0,0,0-1,.51,2.3,2.3,0,0,0,0,2.44,1.2,1.2,0,0,0,1,.51,1.17,1.17,0,0,0,1-.5A2.08,2.08,0,0,0,159.3,95.81Z"/><path class="cls-4" d="M162.05,96.69a.82.82,0,0,0,.34.65,1.32,1.32,0,0,0,.77.2,1.49,1.49,0,0,0,.83-.17.53.53,0,0,0,.26-.47.45.45,0,0,0-.3-.48q-.3-.11-1.17-.3a3.64,3.64,0,0,1-1.29-.5,1.15,1.15,0,0,1-.41-1,1.12,1.12,0,0,1,.62-1.07,2.88,2.88,0,0,1,1.43-.34,2.41,2.41,0,0,1,1.38.37,1.5,1.5,0,0,1,.66,1.14H164a.69.69,0,0,0-.32-.51,1.33,1.33,0,0,0-.67-.15,1.75,1.75,0,0,0-.62.11.41.41,0,0,0-.27.4.44.44,0,0,0,.31.45,9.91,9.91,0,0,0,1.26.33,2.59,2.59,0,0,1,1.28.57,1.21,1.21,0,0,1,.32.86,1.29,1.29,0,0,1-.65,1.2,2.85,2.85,0,0,1-1.54.4,2.6,2.6,0,0,1-1.56-.44,1.47,1.47,0,0,1-.61-1.27Z"/><path class="cls-4" d="M52.88,53.42h3.61V66.76h8v3H52.88Z"/><path class="cls-4" d="M66.29,61.57a3.23,3.23,0,0,1,1.63-3,7.75,7.75,0,0,1,4-.94,8.5,8.5,0,0,1,3.7.72A2.67,2.67,0,0,1,77.08,61v6.18a10.86,10.86,0,0,0,.1,1.58,3,3,0,0,0,.31,1.06H74.18L74,69.17a2.15,2.15,0,0,1-.06-.53,4.33,4.33,0,0,1-1.77,1.1,6.94,6.94,0,0,1-2.22.37,4.53,4.53,0,0,1-2.93-.9,3.2,3.2,0,0,1-1.11-2.66A2.92,2.92,0,0,1,67,64a6,6,0,0,1,2.69-1l3-.42q1.17-.3,1.17-1.17a1.37,1.37,0,0,0-.54-1.29,3.17,3.17,0,0,0-1.57-.32,2.33,2.33,0,0,0-1.52.44,1.85,1.85,0,0,0-.64,1.35ZM73.82,64a3.12,3.12,0,0,1-1.44.48c-.71.11-1.26.2-1.64.28a2.52,2.52,0,0,0-1.07.48,1.4,1.4,0,0,0-.49,1.19,1.27,1.27,0,0,0,.54,1.18,2.7,2.7,0,0,0,1.46.34c1.09,0,1.8-.29,2.13-.88a3.61,3.61,0,0,0,.51-1.85Z"/><path class="cls-4" d="M93.86,71.32l-2.32-2.11a8,8,0,0,1-4,.94,7.52,7.52,0,0,1-5.88-2.42,8.76,8.76,0,0,1-2.18-6.07,8.94,8.94,0,0,1,2.17-6.19,8.29,8.29,0,0,1,11.76,0,9,9,0,0,1,2.18,6.19,9.85,9.85,0,0,1-.54,3.3,8.3,8.3,0,0,1-1.59,2.73l2,1.86Zm-4.71-7.59L91,65.42a5,5,0,0,0,.75-1.58A8.06,8.06,0,0,0,92,61.67a7,7,0,0,0-1.09-4,4.33,4.33,0,0,0-6.73,0,7,7,0,0,0-1.09,4,6.74,6.74,0,0,0,1.09,3.88,3.82,3.82,0,0,0,3.37,1.58q.59,0,.93,0a1,1,0,0,0,.51-.17l-1.53-1.4Z"/><path class="cls-4" d="M109.15,69.79h-3.1V68.13a4.41,4.41,0,0,1-1.63,1.48,4.52,4.52,0,0,1-2.07.5A4.05,4.05,0,0,1,99,68.87,6,6,0,0,1,98,65.22v-7.3h3.26v6.7c0,1.95.7,2.92,2.09,2.92a2.28,2.28,0,0,0,1.94-.79,4.49,4.49,0,0,0,.59-2.61V57.92h3.26Z"/><path class="cls-4" d="M114.17,56.45H111.9l2.2-3.26h3.61ZM112,57.92h3.26V69.79H112Z"/><path class="cls-4" d="M120.9,64.32a2.65,2.65,0,0,0,1,2.29,4.28,4.28,0,0,0,2.6.74,5.24,5.24,0,0,0,2.22-.45,1.62,1.62,0,0,0,1-1.58,1.47,1.47,0,0,0-.91-1.52,36.17,36.17,0,0,0-3.91-1.17,8.12,8.12,0,0,1-4-1.91A4.06,4.06,0,0,1,118,58a4.19,4.19,0,0,1,1.84-3.65A7.25,7.25,0,0,1,124.09,53a8.08,8.08,0,0,1,4.69,1.29,4.48,4.48,0,0,1,1.87,4h-3.49a2.06,2.06,0,0,0-.88-1.9,4.37,4.37,0,0,0-2.35-.56,3.26,3.26,0,0,0-1.73.45,1.5,1.5,0,0,0-.75,1.4,1.37,1.37,0,0,0,1.07,1.41c.71.24,1.94.58,3.7,1A8.45,8.45,0,0,1,130,61.93a4,4,0,0,1,1.17,3,4.67,4.67,0,0,1-1.77,3.79,7.7,7.7,0,0,1-5,1.45,8.09,8.09,0,0,1-5-1.49,5,5,0,0,1-2-4.34Z"/><path class="cls-4" d="M136.62,56.11h-3.26V53.42h3.26Zm-3.26,1.81h3.26V69.79h-3.26Z"/><path class="cls-4" d="M139.81,53.42h3.6v6.27h6.64V53.42h3.6V69.79h-3.6V62.72h-6.64v7.07h-3.6Z"/><path class="cls-4" d="M159.44,64.62a3.1,3.1,0,0,0,.75,2.28,3,3,0,0,0,2.16.75,3,3,0,0,0,1.68-.48,1.87,1.87,0,0,0,.89-1.08h2.87a5.63,5.63,0,0,1-2.06,3,6.05,6.05,0,0,1-3.49,1,5.81,5.81,0,0,1-4.42-1.73,6.93,6.93,0,0,1,0-9,5.77,5.77,0,0,1,4.38-1.78,5,5,0,0,1,4.29,2,8.3,8.3,0,0,1,1.47,5Zm5.3-2.06a3.47,3.47,0,0,0-.83-1.9,2.36,2.36,0,0,0-1.76-.61,2.51,2.51,0,0,0-2.05.81,2.64,2.64,0,0,0-.66,1.7Z"/><g class="cls-7"><path class="cls-4" d="M30.75,86.83s0-3.42-.09-8.55c0-2.56,0-5.55,0-8.76s0-6.62.15-10c0-1.72.09-3.42.21-5.12s.14-3.3.31-4.94a16.11,16.11,0,0,1,1.12-4.57,13.8,13.8,0,0,1,2.21-3.59,21.94,21.94,0,0,1,4.69-4.11c.63-.41,1.13-.73,1.48-.92l.53-.31s-.7.49-1.88,1.4a25.68,25.68,0,0,0-4.36,4.3,16,16,0,0,0-2,3.5,15.17,15.17,0,0,0-1,4.38c-.14,1.56-.18,3.25-.36,4.92s-.19,3.37-.25,5.08Z"/></g><rect class="cls-4" x="52.18" y="76.72" width="114.48" height="0.75"/><path class="cls-3" d="M38.6,51A1.06,1.06,0,0,1,37.53,52H26.45A1.06,1.06,0,0,1,25.38,51h0a1.07,1.07,0,0,1,1.07-1.07H37.53A1.07,1.07,0,0,1,38.6,51Z"/><path class="cls-3" d="M37.53,52.44H26.45a1.47,1.47,0,1,1,0-2.94H37.53a1.47,1.47,0,0,1,0,2.94ZM26.45,50.3a.67.67,0,1,0,0,1.33H37.53a.67.67,0,0,0,0-1.33Z"/><g class="cls-8"><path class="cls-9" d="M38.27,50.81a1,1,0,0,1-1,1H26.66a1,1,0,0,1-1-1h0a1,1,0,0,1,1-1H37.25a1,1,0,0,1,1,1Z"/><path class="cls-9" d="M37.25,52.21H26.66a1.41,1.41,0,0,1,0-2.81H37.25a1.41,1.41,0,0,1,0,2.81Zm-10.59-2a.64.64,0,0,0-.63.64.63.63,0,0,0,.63.63H37.25a.63.63,0,0,0,.63-.63.64.64,0,0,0-.63-.64Z"/></g><rect class="cls-4" x="31.21" y="53.43" width="1.11" height="37.15"/><g class="cls-10"><rect class="cls-9" x="31.21" y="53.43" width="1.11" height="37.15"/></g><path class="cls-9" d="M28.91,92.84A2.88,2.88,0,1,1,31.79,90,2.88,2.88,0,0,1,28.91,92.84Zm0-4.64A1.77,1.77,0,1,0,30.68,90,1.77,1.77,0,0,0,28.91,88.2Z"/><path class="cls-9" d="M34.75,95.49A3.55,3.55,0,1,1,38.3,92,3.55,3.55,0,0,1,34.75,95.49Zm0-5.72A2.18,2.18,0,1,0,36.93,92,2.18,2.18,0,0,0,34.75,89.77Z"/></svg>