<svg id="Capa_1" data-name="Capa 1" xmlns="http://www.w3.org/2000/svg" viewBox="0 0 105 114"><defs><style>.cls-1{fill:#41acef;}.cls-2{fill:#4d4d4d;}</style></defs><polygon class="cls-1" points="25.17 87 52.58 47.68 66.88 69.13 87.14 36.95 87.14 87 25.17 87"/><path class="cls-2" d="M27.14,97.47V18.59a1.9,1.9,0,0,0-3.8,0V97.47a1.9,1.9,0,0,0,3.8,0Z"/><path class="cls-2" d="M13.25,88.45H91.88a1.9,1.9,0,1,0,0-3.79H13.25a1.9,1.9,0,1,0,0,3.79Z"/><path class="cls-2" d="M87.28,35.94l-1,.22-1.51.32a.63.63,0,0,0-.48.74.62.62,0,0,0,.74.48l1.51-.33.43-.09.18.85.22,1a.62.62,0,1,0,1.21-.26l-.22-1L88,36.36A.57.57,0,0,0,87.28,35.94Z"/><path class="cls-2" d="M25.9,87.51l-1.46-1L51.85,47.17a.79.79,0,0,1,.74-.39.9.9,0,0,1,.73.4l13.54,20.3,19.52-31,1.51,1L67.64,69.6a.9.9,0,0,1-.75.42,1,1,0,0,1-.75-.4L52.56,49.26Z"/></svg>