<svg id="Capa_1" data-name="Capa 1" xmlns="http://www.w3.org/2000/svg" viewBox="0 0 105 114"><defs><style>.cls-1{fill:#4d4d4d;}.cls-2{fill:#41acef;}</style></defs><path class="cls-1" d="M82.41,90.51h-60a6.94,6.94,0,0,1-6.93-6.94V42.4a6.94,6.94,0,0,1,6.93-6.93H35.52a1.23,1.23,0,0,1,0,2.46H22.43A4.47,4.47,0,0,0,18,42.4V83.57a4.48,4.48,0,0,0,4.47,4.48h60a4.49,4.49,0,0,0,4.48-4.48V42.4a4.48,4.48,0,0,0-4.48-4.47H69.27a1.23,1.23,0,1,1,0-2.46H82.41a6.94,6.94,0,0,1,6.94,6.93V83.57A6.94,6.94,0,0,1,82.41,90.51Z"/><path class="cls-1" d="M64.46,102H40.39a2.58,2.58,0,0,1-2.57-2.57v-.72a2.57,2.57,0,0,1,2.57-2.57H64.46A2.57,2.57,0,0,1,67,98.72v.72A2.57,2.57,0,0,1,64.46,102Zm-24.07-3.4a.11.11,0,0,0-.11.11v.72a.11.11,0,0,0,.11.11H64.46a.11.11,0,0,0,.11-.11v-.72a.11.11,0,0,0-.11-.11Z"/><path class="cls-1" d="M60.7,98H44.15a1.23,1.23,0,0,1-1.23-1.23V89.36a1.23,1.23,0,0,1,1.23-1.23H60.7a1.23,1.23,0,0,1,1.23,1.23v7.36A1.23,1.23,0,0,1,60.7,98ZM45.38,95.49H59.47v-4.9H45.38Z"/><path class="cls-1" d="M83.07,40.79H67.92l-.27.51c-.35.66-.72,1.3-1.07,1.94H81.84V76.9H23V43.24H37.56a3.58,3.58,0,0,1-.48-1.05,13.09,13.09,0,0,0-.37-1.4H21.78A1.23,1.23,0,0,0,20.55,42V78.13a1.23,1.23,0,0,0,1.23,1.23H83.07a1.23,1.23,0,0,0,1.23-1.23V42A1.23,1.23,0,0,0,83.07,40.79Z"/><path class="cls-1" d="M82.41,90.51h-60a6.94,6.94,0,0,1-6.93-6.94V82.5a1.23,1.23,0,0,1,1.23-1.23H88.12a1.23,1.23,0,0,1,1.23,1.23v1.07A6.94,6.94,0,0,1,82.41,90.51ZM18,83.73a4.49,4.49,0,0,0,4.47,4.32h60a4.48,4.48,0,0,0,4.47-4.32Z"/><path class="cls-1" d="M60,20.45a17.34,17.34,0,0,0-4.5-1.35,18.34,18.34,0,0,0-8.94.76,14.08,14.08,0,0,0-1.45.57,17.56,17.56,0,0,0,0,31.83v9.39a1.25,1.25,0,0,0,1.25,1.25H58.65a1.25,1.25,0,0,0,1.25-1.25V52.26a17.52,17.52,0,0,0,8.39-23.62,17.92,17.92,0,0,0-5-6.12A16.64,16.64,0,0,0,60,20.45ZM58.18,50.29a1.25,1.25,0,0,0-.78,1.16V60.4H47.61V51.45a1.24,1.24,0,0,0-.78-1.16,15,15,0,0,1-7.4-21.42,15.2,15.2,0,0,1,5.44-5.51A14.66,14.66,0,0,1,53.6,21a13,13,0,0,1,4.2,1.12,17.47,17.47,0,0,1,6.45,4.82A15.1,15.1,0,0,1,67.39,34a14.12,14.12,0,0,1,.19,2.34A15,15,0,0,1,58.18,50.29Z"/><path class="cls-2" d="M52.42,23a13,13,0,1,0,13,13A13,13,0,0,0,52.42,23Zm.3,22.08a3.59,3.59,0,1,1,3.58-3.59A3.59,3.59,0,0,1,52.72,45.11Z"/><path class="cls-1" d="M57.17,64.56H47.79a1.23,1.23,0,1,0,0,2.45h9.38a1.23,1.23,0,1,0,0-2.45Z"/><path class="cls-1" d="M55,56.25H49.83a1.23,1.23,0,1,0,0,2.46H55a1.23,1.23,0,1,0,0-2.46Z"/><path class="cls-2" d="M51.4,8.18v5.16a1.23,1.23,0,1,0,2.46,0V8.18a1.23,1.23,0,1,0-2.46,0Z"/><path class="cls-2" d="M76.61,21.15l-1.81,1-2.66,1.54a1.23,1.23,0,0,0,1.23,2.13L76,24.32l1.81-1a1.23,1.23,0,0,0-1.23-2.13Z"/><path class="cls-2" d="M37.37,12.55l1.05,1.81L40,17a1.23,1.23,0,0,0,2.13-1.23l-1.53-2.66-1-1.81a1.23,1.23,0,0,0-2.13,1.23Z"/><path class="cls-2" d="M65.69,11.17l-1,1.81-1.54,2.66a1.23,1.23,0,0,0,2.13,1.23l1.54-2.66,1-1.81a1.23,1.23,0,0,0-.45-1.68A1.25,1.25,0,0,0,65.69,11.17Z"/><path class="cls-2" d="M27.41,23.35l1.81,1,2.66,1.54a1.23,1.23,0,0,0,1.68-.45,1.25,1.25,0,0,0-.45-1.68l-2.66-1.54-1.81-1a1.23,1.23,0,0,0-1.23,2.13Z"/></svg>