<svg id="Capa_1" data-name="Capa 1" xmlns="http://www.w3.org/2000/svg" viewBox="0 0 105 114"><defs><style>.cls-1{fill:#4d4d4d;}.cls-2{fill:#41acef;}</style></defs><path class="cls-1" d="M78.66,93H55.31a8.48,8.48,0,0,1-8.48-8.48v-42A1.57,1.57,0,0,1,48.4,40.9H85.57a1.57,1.57,0,0,1,1.57,1.57v42A8.49,8.49,0,0,1,78.66,93ZM50,44V84.51a5.35,5.35,0,0,0,5.34,5.34H78.66A5.35,5.35,0,0,0,84,84.51V44Z"/><path class="cls-2" d="M51.83,55V84.51A3.49,3.49,0,0,0,55.31,88H78.66a3.49,3.49,0,0,0,3.48-3.49V55Z"/><path class="cls-1" d="M85.91,44H48.06a4.6,4.6,0,0,1,0-9.19H77.93a1.58,1.58,0,0,1,0,3.15H48.06a1.45,1.45,0,0,0,0,2.9H85.91a1.45,1.45,0,0,0,0-2.9H84a1.58,1.58,0,1,1,0-3.15h2a4.6,4.6,0,0,1,0,9.19Z"/><path class="cls-1" d="M79,83.45a.79.79,0,0,1-.78-.79v-35a.79.79,0,1,1,1.57,0V82.66A.79.79,0,0,1,79,83.45Z"/><path class="cls-1" d="M78.64,50.67h-7a.79.79,0,0,1,0-1.57h7a.79.79,0,0,1,0,1.57Z"/><path class="cls-1" d="M78.64,55.81h-7a.79.79,0,0,1,0-1.57h7a.79.79,0,0,1,0,1.57Z"/><path class="cls-1" d="M78.64,60.94h-7a.79.79,0,0,1,0-1.57h7a.79.79,0,0,1,0,1.57Z"/><path class="cls-1" d="M78.64,60.94h-7a.79.79,0,0,1,0-1.57h7a.79.79,0,0,1,0,1.57Z"/><path class="cls-1" d="M78.64,66.08h-7a.79.79,0,0,1,0-1.57h7a.79.79,0,0,1,0,1.57Z"/><path class="cls-1" d="M78.64,71.21h-7a.79.79,0,0,1,0-1.57h7a.79.79,0,0,1,0,1.57Z"/><path class="cls-1" d="M78.64,71.21h-7a.79.79,0,0,1,0-1.57h7a.79.79,0,0,1,0,1.57Z"/><path class="cls-1" d="M78.64,76.35h-7a.79.79,0,0,1,0-1.57h7a.79.79,0,0,1,0,1.57Z"/><path class="cls-1" d="M78.64,81.49h-7a.79.79,0,0,1,0-1.58h7a.79.79,0,0,1,0,1.58Z"/><path class="cls-1" d="M61.21,31.4A6.81,6.81,0,1,1,68,24.59,6.82,6.82,0,0,1,61.21,31.4Zm0-11.56A4.75,4.75,0,1,0,66,24.59,4.75,4.75,0,0,0,61.21,19.84Z"/><path class="cls-1" d="M73.67,22.1A3.29,3.29,0,1,1,77,18.82,3.29,3.29,0,0,1,73.67,22.1Zm0-4.87a1.59,1.59,0,1,0,1.59,1.59A1.6,1.6,0,0,0,73.67,17.23Z"/><path class="cls-1" d="M27.25,94.08A10.59,10.59,0,0,1,16.67,83.51V49.61a1.44,1.44,0,1,1,2.87,0v33.9a7.71,7.71,0,0,0,15.41,0V39.87H19.54v4.54a1.44,1.44,0,1,1-2.87,0v-6A1.45,1.45,0,0,1,18.11,37H36.39a1.44,1.44,0,0,1,1.43,1.44V83.51A10.58,10.58,0,0,1,27.25,94.08Z"/><path class="cls-2" d="M21.24,58.47v25a6,6,0,0,0,12,0v-25Z"/><circle class="cls-2" cx="25.69" cy="50.57" r="2.42"/><path class="cls-2" d="M31.44,45.62a1.22,1.22,0,1,1-1.21-1.21A1.21,1.21,0,0,1,31.44,45.62Z"/></svg>